<?xml version="1.0" encoding="UTF-8" standalone="no"?>
<svg
   xmlns:dc="http://purl.org/dc/elements/1.1/"
   xmlns:cc="http://creativecommons.org/ns#"
   xmlns:rdf="http://www.w3.org/1999/02/22-rdf-syntax-ns#"
   xmlns:svg="http://www.w3.org/2000/svg"
   xmlns="http://www.w3.org/2000/svg"
   viewBox="0 0 700 853.33331"
   height="853.33331"
   width="700"
   xml:space="preserve"
   id="svg2"
   version="1.1"><metadata
     id="metadata8"><rdf:RDF><cc:Work
         rdf:about=""><dc:format>image/svg+xml</dc:format><dc:type
           rdf:resource="http://purl.org/dc/dcmitype/StillImage" /></cc:Work></rdf:RDF></metadata><defs
     id="defs6"><clipPath
       id="clipPath18"
       clipPathUnits="userSpaceOnUse"><path
         id="path16"
         d="M 0,0 H 525 V 640 H 0 Z" /></clipPath><clipPath
       id="clipPath32"
       clipPathUnits="userSpaceOnUse"><path
         id="path30"
         d="M 0,0 V 640 H 525 V 0 Z" /></clipPath><clipPath
       id="clipPath38"
       clipPathUnits="userSpaceOnUse"><path
         id="path36"
         d="M 0,0 H 525 V 640 H 0 Z" /></clipPath><clipPath
       id="clipPath302"
       clipPathUnits="userSpaceOnUse"><path
         id="path300"
         d="M 0,0 V 640 H 525 V 0 Z" /></clipPath></defs><g
     transform="matrix(1.3333333,0,0,1.3333333,0,1.8e-5)"
     id="g10"><g
       id="g12"><g
         clip-path="url(#clipPath18)"
         id="g14"><g
           id="g20"><g
             id="g22" /></g><g
           id="g24"><g
             id="g26"><g
               clip-path="url(#clipPath32)"
               id="g28"><g
                 clip-path="url(#clipPath38)"
                 id="g34"><g
                   transform="translate(-445,-235)"
                   id="g40"><path
                     id="path42"
                     style="fill:#ffffff;fill-opacity:1;fill-rule:nonzero;stroke:none"
                     d="M 445,235 H 970 V 875 H 445 Z" /><g
                     id="g44"><path
                       id="path46"
                       style="fill:#ffffff;fill-opacity:1;fill-rule:nonzero;stroke:none"
                       d="m 460.09,254.19 v 22 c 0,2.2 1.79,4 4,4 h 37.45 c 2.21,0 4,-1.8 4,-4 v -22 c 0,-2.21 -1.79,-4 -4,-4 h -37.45 c -2.21,0 -4,1.79 -4,4 z" /><path
                       id="path48"
                       style="fill:none;stroke:#000000;stroke-width:1;stroke-linecap:butt;stroke-linejoin:miter;stroke-miterlimit:1.45000005;stroke-dasharray:none;stroke-opacity:1"
                       d="m 460.09,254.19 v 22 c 0,2.2 1.79,4 4,4 h 37.45 c 2.21,0 4,-1.8 4,-4 v -22 c 0,-2.21 -1.79,-4 -4,-4 h -37.45 c -2.21,0 -4,1.79 -4,4 z" /><path
                       id="path50"
                       style="fill:#000000;fill-opacity:1;fill-rule:nonzero;stroke:none"
                       d="m 483.84,260.59 h 1 l -3.05,9.86 h -1 z" /><path
                       id="path52"
                       style="fill:#ffffff;fill-opacity:1;fill-rule:nonzero;stroke:none"
                       d="m 908.44,724.79 v 22 c 0,2.2 1.79,4 4,4 h 37.45 c 2.21,0 4,-1.8 4,-4 v -22 c 0,-2.21 -1.79,-4 -4,-4 h -37.45 c -2.21,0 -4,1.79 -4,4 z" /><path
                       id="path54"
                       style="fill:none;stroke:#000000;stroke-width:1;stroke-linecap:butt;stroke-linejoin:miter;stroke-miterlimit:1.45000005;stroke-dasharray:none;stroke-opacity:1"
                       d="m 908.44,724.79 v 22 c 0,2.2 1.79,4 4,4 h 37.45 c 2.21,0 4,-1.8 4,-4 v -22 c 0,-2.21 -1.79,-4 -4,-4 h -37.45 c -2.21,0 -4,1.79 -4,4 z" /><path
                       id="path56"
                       style="fill:#000000;fill-opacity:1;fill-rule:nonzero;stroke:none"
                       d="m 925.14,730.81 h 1.08 v 9.13 h -1.08 z m 3.34,2.57 h 1.08 v 6.56 h -1.08 z m 0,-2.57 h 1.08 v 1.38 h -1.08 z m 8.05,5.85 c 0,-0.79 -0.16,-1.41 -0.49,-1.86 -0.33,-0.45 -0.77,-0.67 -1.34,-0.67 -0.57,0 -1.02,0.22 -1.35,0.67 -0.33,0.45 -0.49,1.07 -0.49,1.86 0,0.79 0.16,1.41 0.49,1.87 0.33,0.45 0.78,0.68 1.35,0.68 0.57,0 1.01,-0.23 1.34,-0.68 0.33,-0.46 0.49,-1.08 0.49,-1.87 z m -3.67,-2.28 c 0.23,-0.4 0.51,-0.69 0.86,-0.88 0.34,-0.19 0.75,-0.28 1.23,-0.28 0.8,0 1.46,0.32 1.96,0.95 0.5,0.63 0.75,1.46 0.75,2.49 0,1.03 -0.25,1.86 -0.75,2.5 -0.5,0.63 -1.16,0.95 -1.96,0.95 -0.48,0 -0.89,-0.09 -1.23,-0.29 -0.35,-0.19 -0.63,-0.48 -0.86,-0.86 v 0.98 h -1.08 v -9.13 h 1.08 z" /><path
                       id="path58"
                       style="fill:#ffffff;fill-opacity:1;fill-rule:nonzero;stroke:none"
                       d="m 908.44,688.59 v 22 c 0,2.2 1.79,4 4,4 h 37.45 c 2.21,0 4,-1.8 4,-4 v -22 c 0,-2.21 -1.79,-4 -4,-4 h -37.45 c -2.21,0 -4,1.79 -4,4 z" /><path
                       id="path60"
                       style="fill:none;stroke:#000000;stroke-width:1;stroke-linecap:butt;stroke-linejoin:miter;stroke-miterlimit:1.45000005;stroke-dasharray:none;stroke-opacity:1"
                       d="m 908.44,688.59 v 22 c 0,2.2 1.79,4 4,4 h 37.45 c 2.21,0 4,-1.8 4,-4 v -22 c 0,-2.21 -1.79,-4 -4,-4 h -37.45 c -2.21,0 -4,1.79 -4,4 z" /><path
                       id="path62"
                       style="fill:#000000;fill-opacity:1;fill-rule:nonzero;stroke:none"
                       d="m 927.73,700.46 c 0,-0.79 -0.17,-1.41 -0.5,-1.86 -0.32,-0.45 -0.77,-0.67 -1.33,-0.67 -0.57,0 -1.02,0.22 -1.35,0.67 -0.33,0.45 -0.49,1.07 -0.49,1.86 0,0.79 0.16,1.41 0.49,1.87 0.33,0.45 0.78,0.68 1.35,0.68 0.56,0 1.01,-0.23 1.33,-0.68 0.33,-0.46 0.5,-1.08 0.5,-1.87 z m -3.67,-2.28 c 0.22,-0.4 0.51,-0.69 0.85,-0.88 0.35,-0.19 0.76,-0.28 1.24,-0.28 0.8,0 1.45,0.32 1.95,0.95 0.5,0.63 0.75,1.46 0.75,2.49 0,1.03 -0.25,1.86 -0.75,2.5 -0.5,0.63 -1.15,0.95 -1.95,0.95 -0.48,0 -0.89,-0.09 -1.24,-0.29 -0.34,-0.19 -0.63,-0.48 -0.85,-0.86 v 0.98 h -1.08 v -9.13 h 1.08 z m 6.57,-1 h 1.07 v 6.56 h -1.07 z m 0,-2.57 h 1.07 v 1.38 h -1.07 z m 8.8,5.16 v 3.97 h -1.08 v -3.92 c 0,-0.63 -0.12,-1.09 -0.37,-1.4 -0.24,-0.31 -0.6,-0.46 -1.08,-0.46 -0.59,0 -1.05,0.18 -1.39,0.55 -0.33,0.37 -0.5,0.88 -0.5,1.53 v 3.7 h -1.08 v -6.56 h 1.08 v 1.01 c 0.26,-0.39 0.56,-0.69 0.91,-0.88 0.35,-0.19 0.75,-0.29 1.21,-0.29 0.75,0 1.32,0.23 1.71,0.7 0.39,0.46 0.59,1.14 0.59,2.05 z" /><path
                       id="path64"
                       style="fill:#ffffff;fill-opacity:1;fill-rule:nonzero;stroke:none"
                       d="m 908.44,760.99 v 22 c 0,2.2 1.79,4 4,4 h 37.45 c 2.21,0 4,-1.8 4,-4 v -22 c 0,-2.21 -1.79,-4 -4,-4 h -37.45 c -2.21,0 -4,1.79 -4,4 z" /><path
                       id="path66"
                       style="fill:none;stroke:#000000;stroke-width:1;stroke-linecap:butt;stroke-linejoin:miter;stroke-miterlimit:1.45000005;stroke-dasharray:none;stroke-opacity:1"
                       d="m 908.44,760.99 v 22 c 0,2.2 1.79,4 4,4 h 37.45 c 2.21,0 4,-1.8 4,-4 v -22 c 0,-2.21 -1.79,-4 -4,-4 h -37.45 c -2.21,0 -4,1.79 -4,4 z" /><path
                       id="path68"
                       style="fill:#000000;fill-opacity:1;fill-rule:nonzero;stroke:none"
                       d="m 910.55,769.58 h 1.08 v 6.56 h -1.08 z m 0,-2.57 h 1.08 v 1.38 h -1.08 z m 8.8,5.16 v 3.97 h -1.08 v -3.92 c 0,-0.63 -0.12,-1.09 -0.36,-1.4 -0.25,-0.31 -0.61,-0.46 -1.09,-0.46 -0.58,0 -1.04,0.18 -1.38,0.55 -0.34,0.37 -0.51,0.88 -0.51,1.53 v 3.7 h -1.08 v -6.56 h 1.08 v 1.01 c 0.26,-0.39 0.56,-0.69 0.91,-0.88 0.35,-0.19 0.76,-0.29 1.21,-0.29 0.75,0 1.32,0.23 1.72,0.7 0.39,0.46 0.58,1.14 0.58,2.05 z m 6.87,-2.34 v 1.01 c -0.31,-0.17 -0.62,-0.3 -0.92,-0.39 -0.3,-0.08 -0.61,-0.12 -0.92,-0.12 -0.71,0 -1.26,0.22 -1.64,0.66 -0.39,0.44 -0.58,1.07 -0.58,1.87 0,0.8 0.19,1.42 0.58,1.87 0.38,0.44 0.93,0.66 1.64,0.66 0.31,0 0.62,-0.04 0.92,-0.13 0.3,-0.08 0.61,-0.2 0.92,-0.37 v 1 c -0.3,0.14 -0.61,0.24 -0.94,0.31 -0.32,0.08 -0.66,0.11 -1.03,0.11 -0.99,0 -1.77,-0.31 -2.36,-0.93 -0.58,-0.62 -0.87,-1.46 -0.87,-2.52 0,-1.06 0.29,-1.9 0.88,-2.52 0.59,-0.61 1.4,-0.92 2.43,-0.92 0.32,0 0.64,0.03 0.96,0.1 0.32,0.07 0.63,0.17 0.93,0.31 z m 1.87,-2.82 h 1.07 v 9.13 h -1.07 z m 3.22,6.54 v -3.97 h 1.08 v 3.93 c 0,0.62 0.12,1.08 0.37,1.4 0.24,0.31 0.6,0.46 1.08,0.46 0.58,0 1.05,-0.18 1.38,-0.55 0.34,-0.37 0.51,-0.88 0.51,-1.52 v -3.72 h 1.08 v 6.56 h -1.08 v -1.02 c -0.26,0.41 -0.56,0.71 -0.9,0.9 -0.35,0.2 -0.75,0.29 -1.21,0.29 -0.76,0 -1.33,-0.23 -1.72,-0.7 -0.39,-0.47 -0.59,-1.16 -0.59,-2.06 z m 2.72,-4.13 z m 9.32,1.16 v -3.57 h 1.08 v 9.13 h -1.08 v -0.98 c -0.23,0.38 -0.51,0.67 -0.86,0.86 -0.34,0.2 -0.76,0.29 -1.25,0.29 -0.79,0 -1.43,-0.32 -1.93,-0.95 -0.5,-0.64 -0.75,-1.47 -0.75,-2.5 0,-1.03 0.25,-1.86 0.75,-2.49 0.5,-0.63 1.14,-0.95 1.93,-0.95 0.49,0 0.91,0.09 1.25,0.28 0.35,0.19 0.63,0.48 0.86,0.88 z m -3.67,2.28 c 0,0.79 0.16,1.41 0.49,1.87 0.32,0.45 0.77,0.68 1.34,0.68 0.57,0 1.02,-0.23 1.35,-0.68 0.33,-0.46 0.49,-1.08 0.49,-1.87 0,-0.79 -0.16,-1.41 -0.49,-1.86 -0.33,-0.45 -0.78,-0.67 -1.35,-0.67 -0.57,0 -1.02,0.22 -1.34,0.67 -0.33,0.45 -0.49,1.07 -0.49,1.86 z m 12.59,-0.27 v 0.52 h -4.97 c 0.05,0.75 0.28,1.32 0.68,1.7 0.4,0.39 0.95,0.58 1.66,0.58 0.42,0 0.82,-0.05 1.21,-0.15 0.39,-0.1 0.78,-0.25 1.17,-0.46 v 1.03 c -0.4,0.16 -0.8,0.28 -1.21,0.37 -0.4,0.09 -0.81,0.13 -1.23,0.13 -1.04,0 -1.87,-0.3 -2.48,-0.91 -0.62,-0.61 -0.93,-1.44 -0.93,-2.48 0,-1.07 0.3,-1.92 0.88,-2.55 0.58,-0.63 1.36,-0.95 2.34,-0.95 0.89,0 1.59,0.28 2.1,0.85 0.52,0.57 0.78,1.34 0.78,2.32 z m -1.08,-0.33 c -0.01,-0.58 -0.18,-1.05 -0.5,-1.4 -0.32,-0.36 -0.75,-0.53 -1.28,-0.53 -0.61,0 -1.09,0.17 -1.45,0.51 -0.36,0.35 -0.56,0.83 -0.61,1.44 z" /><path
                       id="path70"
                       style="fill:#ffffff;fill-opacity:1;fill-rule:nonzero;stroke:none"
                       d="m 808.98,688.59 v 22 c 0,2.2 1.79,4 4,4 h 37.46 c 2.2,0 4,-1.8 4,-4 v -22 c 0,-2.21 -1.8,-4 -4,-4 h -37.46 c -2.21,0 -4,1.79 -4,4 z" /><path
                       id="path72"
                       style="fill:none;stroke:#000000;stroke-width:1;stroke-linecap:butt;stroke-linejoin:miter;stroke-miterlimit:1.45000005;stroke-dasharray:none;stroke-opacity:1"
                       d="m 808.98,688.59 v 22 c 0,2.2 1.79,4 4,4 h 37.46 c 2.2,0 4,-1.8 4,-4 v -22 c 0,-2.21 -1.8,-4 -4,-4 h -37.46 c -2.21,0 -4,1.79 -4,4 z" /><path
                       id="path74"
                       style="fill:#000000;fill-opacity:1;fill-rule:nonzero;stroke:none"
                       d="m 828.28,700.46 c 0,-0.79 -0.17,-1.41 -0.5,-1.86 -0.33,-0.45 -0.77,-0.67 -1.33,-0.67 -0.58,0 -1.03,0.22 -1.35,0.67 -0.33,0.45 -0.5,1.07 -0.5,1.86 0,0.79 0.17,1.41 0.5,1.87 0.32,0.45 0.77,0.68 1.35,0.68 0.56,0 1,-0.23 1.33,-0.68 0.33,-0.46 0.5,-1.08 0.5,-1.87 z m -3.68,-2.28 c 0.23,-0.4 0.52,-0.69 0.86,-0.88 0.35,-0.19 0.76,-0.28 1.24,-0.28 0.8,0 1.45,0.32 1.95,0.95 0.5,0.63 0.75,1.46 0.75,2.49 0,1.03 -0.25,1.86 -0.75,2.5 -0.5,0.63 -1.15,0.95 -1.95,0.95 -0.48,0 -0.89,-0.09 -1.24,-0.29 -0.34,-0.19 -0.63,-0.48 -0.86,-0.86 v 0.98 h -1.07 v -9.13 h 1.07 z m 6.57,-1 h 1.08 v 6.56 h -1.08 z m 0,-2.57 h 1.08 v 1.38 h -1.08 z m 8.81,5.16 v 3.97 h -1.08 v -3.92 c 0,-0.63 -0.12,-1.09 -0.37,-1.4 -0.24,-0.31 -0.61,-0.46 -1.08,-0.46 -0.59,0 -1.05,0.18 -1.39,0.55 -0.34,0.37 -0.51,0.88 -0.51,1.53 v 3.7 h -1.07 v -6.56 h 1.07 v 1.01 c 0.26,-0.39 0.57,-0.69 0.92,-0.88 0.35,-0.19 0.75,-0.29 1.21,-0.29 0.75,0 1.32,0.23 1.71,0.7 0.39,0.46 0.59,1.14 0.59,2.05 z" /><path
                       id="path76"
                       style="fill:#ffffff;fill-opacity:1;fill-rule:nonzero;stroke:none"
                       d="m 808.98,724.79 v 22 c 0,2.2 1.79,4 4,4 h 37.46 c 2.2,0 4,-1.8 4,-4 v -22 c 0,-2.21 -1.8,-4 -4,-4 h -37.46 c -2.21,0 -4,1.79 -4,4 z" /><path
                       id="path78"
                       style="fill:none;stroke:#000000;stroke-width:1;stroke-linecap:butt;stroke-linejoin:miter;stroke-miterlimit:1.45000005;stroke-dasharray:none;stroke-opacity:1"
                       d="m 808.98,724.79 v 22 c 0,2.2 1.79,4 4,4 h 37.46 c 2.2,0 4,-1.8 4,-4 v -22 c 0,-2.21 -1.8,-4 -4,-4 h -37.46 c -2.21,0 -4,1.79 -4,4 z" /><path
                       id="path80"
                       style="fill:#000000;fill-opacity:1;fill-rule:nonzero;stroke:none"
                       d="m 811.1,733.38 h 1.07 v 6.56 h -1.07 z m 0,-2.57 h 1.07 v 1.38 h -1.07 z m 8.8,5.16 v 3.97 h -1.08 v -3.92 c 0,-0.63 -0.12,-1.09 -0.37,-1.4 -0.24,-0.31 -0.6,-0.46 -1.08,-0.46 -0.59,0 -1.05,0.18 -1.38,0.55 -0.34,0.37 -0.51,0.88 -0.51,1.53 v 3.7 h -1.08 v -6.56 h 1.08 v 1.01 c 0.26,-0.39 0.56,-0.69 0.91,-0.88 0.35,-0.19 0.75,-0.29 1.21,-0.29 0.75,0 1.32,0.23 1.71,0.7 0.39,0.46 0.59,1.14 0.59,2.05 z m 6.87,-2.34 v 1.01 c -0.31,-0.17 -0.62,-0.3 -0.92,-0.39 -0.3,-0.08 -0.61,-0.12 -0.92,-0.12 -0.71,0 -1.26,0.22 -1.64,0.66 -0.39,0.44 -0.58,1.07 -0.58,1.87 0,0.8 0.19,1.42 0.58,1.87 0.38,0.44 0.93,0.66 1.64,0.66 0.31,0 0.62,-0.04 0.92,-0.13 0.3,-0.08 0.61,-0.2 0.92,-0.37 v 1 c -0.3,0.13 -0.61,0.24 -0.94,0.31 -0.32,0.07 -0.66,0.11 -1.03,0.11 -0.99,0 -1.77,-0.31 -2.36,-0.93 -0.58,-0.62 -0.87,-1.46 -0.87,-2.52 0,-1.06 0.29,-1.9 0.88,-2.52 0.59,-0.61 1.4,-0.92 2.43,-0.92 0.32,0 0.64,0.03 0.96,0.1 0.32,0.07 0.63,0.17 0.93,0.31 z m 1.86,-2.82 h 1.08 v 9.13 h -1.08 z m 3.23,6.54 v -3.97 h 1.08 v 3.93 c 0,0.62 0.12,1.08 0.36,1.4 0.25,0.31 0.61,0.46 1.09,0.46 0.58,0 1.04,-0.18 1.38,-0.55 0.34,-0.37 0.51,-0.88 0.51,-1.52 v -3.72 h 1.08 v 6.56 h -1.08 v -1.02 c -0.26,0.41 -0.56,0.71 -0.91,0.9 -0.34,0.2 -0.74,0.29 -1.2,0.29 -0.76,0 -1.34,-0.23 -1.73,-0.7 -0.39,-0.47 -0.58,-1.16 -0.58,-2.06 z m 2.72,-4.13 z m 9.32,1.16 v -3.57 h 1.08 v 9.13 h -1.08 v -0.98 c -0.23,0.38 -0.51,0.67 -0.86,0.86 -0.34,0.2 -0.76,0.29 -1.25,0.29 -0.79,0 -1.44,-0.32 -1.94,-0.95 -0.5,-0.64 -0.75,-1.47 -0.75,-2.5 0,-1.03 0.25,-1.86 0.75,-2.49 0.5,-0.63 1.15,-0.95 1.94,-0.95 0.49,0 0.91,0.09 1.25,0.28 0.35,0.19 0.63,0.48 0.86,0.88 z m -3.67,2.28 c 0,0.79 0.16,1.41 0.48,1.87 0.33,0.45 0.77,0.68 1.35,0.68 0.57,0 1.02,-0.23 1.35,-0.68 0.33,-0.46 0.49,-1.08 0.49,-1.87 0,-0.79 -0.16,-1.41 -0.49,-1.86 -0.33,-0.45 -0.78,-0.67 -1.35,-0.67 -0.58,0 -1.02,0.22 -1.35,0.67 -0.32,0.45 -0.48,1.07 -0.48,1.86 z m 12.59,-0.27 v 0.52 h -4.97 c 0.05,0.75 0.28,1.32 0.68,1.7 0.4,0.39 0.95,0.58 1.66,0.58 0.42,0 0.82,-0.05 1.21,-0.15 0.39,-0.1 0.78,-0.25 1.17,-0.46 v 1.03 c -0.4,0.16 -0.8,0.28 -1.21,0.37 -0.4,0.09 -0.82,0.13 -1.23,0.13 -1.04,0 -1.87,-0.3 -2.49,-0.91 -0.61,-0.61 -0.92,-1.44 -0.92,-2.48 0,-1.07 0.29,-1.92 0.88,-2.55 0.58,-0.63 1.36,-0.95 2.34,-0.95 0.89,0 1.59,0.28 2.1,0.85 0.52,0.57 0.78,1.34 0.78,2.32 z m -1.08,-0.33 c -0.01,-0.58 -0.18,-1.05 -0.5,-1.4 -0.33,-0.36 -0.75,-0.53 -1.28,-0.53 -0.61,0 -1.09,0.17 -1.45,0.51 -0.36,0.35 -0.56,0.83 -0.62,1.44 z" /><path
                       id="path82"
                       style="fill:#ffffff;fill-opacity:1;fill-rule:nonzero;stroke:none"
                       d="m 808.98,760.99 v 22 c 0,2.2 1.79,4 4,4 h 37.46 c 2.2,0 4,-1.8 4,-4 v -22 c 0,-2.21 -1.8,-4 -4,-4 h -37.46 c -2.21,0 -4,1.79 -4,4 z" /><path
                       id="path84"
                       style="fill:none;stroke:#000000;stroke-width:1;stroke-linecap:butt;stroke-linejoin:miter;stroke-miterlimit:1.45000005;stroke-dasharray:none;stroke-opacity:1"
                       d="m 808.98,760.99 v 22 c 0,2.2 1.79,4 4,4 h 37.46 c 2.2,0 4,-1.8 4,-4 v -22 c 0,-2.21 -1.8,-4 -4,-4 h -37.46 c -2.21,0 -4,1.79 -4,4 z" /><path
                       id="path86"
                       style="fill:#000000;fill-opacity:1;fill-rule:nonzero;stroke:none"
                       d="m 818.85,767.01 h 1.08 v 9.13 h -1.08 z m 5.89,3.32 c -0.58,0 -1.03,0.22 -1.37,0.68 -0.34,0.45 -0.51,1.07 -0.51,1.85 0,0.79 0.17,1.41 0.5,1.86 0.33,0.45 0.79,0.67 1.38,0.67 0.57,0 1.02,-0.23 1.36,-0.68 0.34,-0.45 0.51,-1.07 0.51,-1.85 0,-0.77 -0.17,-1.39 -0.51,-1.85 -0.34,-0.45 -0.79,-0.68 -1.36,-0.68 z m 0,-0.91 c 0.93,0 1.67,0.31 2.21,0.91 0.53,0.61 0.8,1.46 0.8,2.53 0,1.07 -0.27,1.92 -0.8,2.53 -0.54,0.61 -1.28,0.92 -2.21,0.92 -0.94,0 -1.68,-0.31 -2.22,-0.92 -0.53,-0.61 -0.8,-1.46 -0.8,-2.53 0,-1.07 0.27,-1.92 0.8,-2.53 0.54,-0.6 1.28,-0.91 2.22,-0.91 z m 9.52,0.41 v 1.01 c -0.31,-0.17 -0.62,-0.3 -0.92,-0.39 -0.3,-0.08 -0.61,-0.12 -0.92,-0.12 -0.71,0 -1.25,0.22 -1.64,0.66 -0.39,0.44 -0.58,1.07 -0.58,1.87 0,0.8 0.19,1.42 0.58,1.87 0.39,0.44 0.93,0.66 1.64,0.66 0.31,0 0.62,-0.04 0.92,-0.13 0.3,-0.08 0.61,-0.2 0.92,-0.37 v 1 c -0.3,0.14 -0.61,0.24 -0.93,0.31 -0.33,0.08 -0.67,0.11 -1.03,0.11 -0.99,0 -1.78,-0.31 -2.36,-0.93 -0.59,-0.62 -0.88,-1.46 -0.88,-2.52 0,-1.06 0.3,-1.9 0.88,-2.52 0.59,-0.61 1.4,-0.92 2.43,-0.92 0.33,0 0.65,0.03 0.96,0.1 0.32,0.07 0.63,0.17 0.93,0.31 z m 4.85,3.01 c -0.86,0 -1.46,0.1 -1.8,0.3 -0.34,0.2 -0.51,0.54 -0.51,1.02 0,0.38 0.13,0.69 0.38,0.91 0.26,0.22 0.6,0.34 1.03,0.34 0.6,0 1.08,-0.22 1.44,-0.64 0.36,-0.42 0.54,-0.98 0.54,-1.69 v -0.24 z m 2.16,-0.45 v 3.75 h -1.08 v -1 c -0.25,0.4 -0.56,0.69 -0.92,0.88 -0.37,0.2 -0.81,0.29 -1.35,0.29 -0.67,0 -1.21,-0.19 -1.6,-0.57 -0.4,-0.38 -0.6,-0.88 -0.6,-1.51 0,-0.74 0.25,-1.29 0.74,-1.67 0.5,-0.37 1.24,-0.56 2.21,-0.56 h 1.52 v -0.11 c 0,-0.5 -0.16,-0.89 -0.49,-1.16 -0.33,-0.27 -0.79,-0.4 -1.37,-0.4 -0.37,0 -0.74,0.04 -1.1,0.14 -0.36,0.09 -0.7,0.23 -1.02,0.4 v -1 c 0.39,-0.15 0.77,-0.27 1.14,-0.34 0.37,-0.07 0.74,-0.11 1.09,-0.11 0.95,0 1.66,0.25 2.13,0.74 0.46,0.48 0.7,1.23 0.7,2.23 z m 2.21,-5.38 h 1.08 v 9.13 h -1.08 z" /><path
                       id="path88"
                       style="fill:#ffffff;fill-opacity:1;fill-rule:nonzero;stroke:none"
                       d="m 808.98,797.19 v 22 c 0,2.2 1.79,4 4,4 h 37.46 c 2.2,0 4,-1.8 4,-4 v -22 c 0,-2.21 -1.8,-4 -4,-4 h -37.46 c -2.21,0 -4,1.79 -4,4 z" /><path
                       id="path90"
                       style="fill:none;stroke:#000000;stroke-width:1;stroke-linecap:butt;stroke-linejoin:miter;stroke-miterlimit:1.45000005;stroke-dasharray:none;stroke-opacity:1"
                       d="m 808.98,797.19 v 22 c 0,2.2 1.79,4 4,4 h 37.46 c 2.2,0 4,-1.8 4,-4 v -22 c 0,-2.21 -1.8,-4 -4,-4 h -37.46 c -2.21,0 -4,1.79 -4,4 z" /><path
                       id="path92"
                       style="fill:#000000;fill-opacity:1;fill-rule:nonzero;stroke:none"
                       d="m 825.69,803.21 h 1.08 v 9.13 h -1.08 z m 3.34,2.57 h 1.07 v 6.56 h -1.07 z m 0,-2.57 h 1.07 v 1.38 h -1.07 z m 8.05,5.85 c 0,-0.79 -0.17,-1.41 -0.49,-1.86 -0.33,-0.45 -0.78,-0.67 -1.34,-0.67 -0.57,0 -1.02,0.22 -1.35,0.67 -0.33,0.45 -0.49,1.07 -0.49,1.86 0,0.79 0.16,1.41 0.49,1.87 0.33,0.45 0.78,0.68 1.35,0.68 0.56,0 1.01,-0.23 1.34,-0.68 0.32,-0.46 0.49,-1.08 0.49,-1.87 z m -3.67,-2.28 c 0.23,-0.4 0.51,-0.69 0.86,-0.88 0.34,-0.19 0.75,-0.28 1.23,-0.28 0.8,0 1.45,0.32 1.95,0.95 0.5,0.63 0.75,1.46 0.75,2.49 0,1.03 -0.25,1.86 -0.75,2.5 -0.5,0.63 -1.15,0.95 -1.95,0.95 -0.48,0 -0.89,-0.09 -1.23,-0.29 -0.35,-0.19 -0.63,-0.48 -0.86,-0.86 v 0.98 h -1.08 v -9.13 h 1.08 z" /><path
                       id="path94"
                       style="fill:#ffffff;fill-opacity:1;fill-rule:nonzero;stroke:none"
                       d="m 808.98,652.39 v 22 c 0,2.2 1.79,4 4,4 h 37.46 c 2.2,0 4,-1.8 4,-4 v -22 c 0,-2.21 -1.8,-4 -4,-4 h -37.46 c -2.21,0 -4,1.79 -4,4 z" /><path
                       id="path96"
                       style="fill:none;stroke:#000000;stroke-width:1;stroke-linecap:butt;stroke-linejoin:miter;stroke-miterlimit:1.45000005;stroke-dasharray:none;stroke-opacity:1"
                       d="m 808.98,652.39 v 22 c 0,2.2 1.79,4 4,4 h 37.46 c 2.2,0 4,-1.8 4,-4 v -22 c 0,-2.21 -1.8,-4 -4,-4 h -37.46 c -2.21,0 -4,1.79 -4,4 z" /><path
                       id="path98"
                       style="fill:#000000;fill-opacity:1;fill-rule:nonzero;stroke:none"
                       d="m 828.13,661.16 v 1.04 c -0.3,-0.16 -0.62,-0.28 -0.94,-0.36 -0.33,-0.07 -0.67,-0.11 -1.03,-0.11 -0.53,0 -0.93,0.08 -1.2,0.24 -0.27,0.16 -0.41,0.41 -0.41,0.74 0,0.25 0.1,0.45 0.29,0.59 0.19,0.14 0.58,0.27 1.17,0.4 l 0.36,0.09 c 0.77,0.16 1.31,0.38 1.64,0.69 0.32,0.3 0.48,0.72 0.48,1.25 0,0.61 -0.24,1.1 -0.73,1.45 -0.48,0.35 -1.14,0.53 -1.99,0.53 -0.35,0 -0.72,-0.03 -1.1,-0.1 -0.38,-0.07 -0.78,-0.17 -1.2,-0.3 v -1.13 c 0.4,0.21 0.79,0.36 1.18,0.47 0.38,0.1 0.77,0.16 1.15,0.16 0.5,0 0.89,-0.09 1.17,-0.26 0.27,-0.17 0.41,-0.42 0.41,-0.74 0,-0.3 -0.1,-0.52 -0.3,-0.68 -0.19,-0.15 -0.63,-0.3 -1.29,-0.45 l -0.38,-0.08 c -0.66,-0.14 -1.15,-0.36 -1.44,-0.65 -0.3,-0.3 -0.45,-0.69 -0.45,-1.19 0,-0.63 0.22,-1.11 0.66,-1.44 0.44,-0.33 1.05,-0.5 1.86,-0.5 0.39,0 0.77,0.03 1.12,0.09 0.36,0.05 0.68,0.14 0.97,0.25 z m 5.88,0.82 c -0.13,-0.07 -0.26,-0.11 -0.4,-0.15 -0.14,-0.04 -0.3,-0.06 -0.48,-0.06 -0.6,0 -1.07,0.2 -1.4,0.6 -0.32,0.39 -0.49,0.97 -0.49,1.72 v 3.45 h -1.08 v -6.56 h 1.08 v 1.01 c 0.23,-0.39 0.53,-0.69 0.89,-0.88 0.37,-0.19 0.81,-0.29 1.33,-0.29 0.07,0 0.15,0.01 0.24,0.02 0.09,0.01 0.19,0.02 0.29,0.04 z m 5.85,-0.75 v 1.01 c -0.31,-0.17 -0.62,-0.3 -0.92,-0.39 -0.3,-0.08 -0.61,-0.12 -0.92,-0.12 -0.71,0 -1.26,0.22 -1.64,0.66 -0.39,0.44 -0.58,1.07 -0.58,1.87 0,0.8 0.19,1.42 0.58,1.87 0.38,0.44 0.93,0.66 1.64,0.66 0.31,0 0.62,-0.04 0.92,-0.13 0.3,-0.08 0.61,-0.2 0.92,-0.37 v 1 c -0.3,0.13 -0.61,0.24 -0.93,0.31 -0.33,0.07 -0.67,0.11 -1.04,0.11 -0.99,0 -1.77,-0.31 -2.36,-0.93 -0.58,-0.62 -0.87,-1.46 -0.87,-2.52 0,-1.06 0.29,-1.9 0.88,-2.52 0.59,-0.61 1.4,-0.92 2.43,-0.92 0.33,0 0.65,0.03 0.96,0.1 0.32,0.07 0.63,0.17 0.93,0.31 z" /><path
                       id="path100"
                       style="fill:#ffffff;fill-opacity:1;fill-rule:nonzero;stroke:none"
                       d="m 808.98,616.19 v 22 c 0,2.2 1.79,4 4,4 h 37.46 c 2.2,0 4,-1.8 4,-4 v -22 c 0,-2.21 -1.8,-4 -4,-4 h -37.46 c -2.21,0 -4,1.79 -4,4 z" /><path
                       id="path102"
                       style="fill:none;stroke:#000000;stroke-width:1;stroke-linecap:butt;stroke-linejoin:miter;stroke-miterlimit:1.45000005;stroke-dasharray:none;stroke-opacity:1"
                       d="m 808.98,616.19 v 22 c 0,2.2 1.79,4 4,4 h 37.46 c 2.2,0 4,-1.8 4,-4 v -22 c 0,-2.21 -1.8,-4 -4,-4 h -37.46 c -2.21,0 -4,1.79 -4,4 z" /><path
                       id="path104"
                       style="fill:#000000;fill-opacity:1;fill-rule:nonzero;stroke:none"
                       d="M 820.26,624.96 V 626 c -0.3,-0.16 -0.62,-0.28 -0.95,-0.36 -0.32,-0.07 -0.67,-0.11 -1.02,-0.11 -0.53,0 -0.93,0.08 -1.2,0.24 -0.27,0.16 -0.41,0.41 -0.41,0.74 0,0.25 0.1,0.45 0.29,0.59 0.19,0.14 0.58,0.27 1.16,0.4 l 0.36,0.09 c 0.77,0.16 1.32,0.39 1.64,0.69 0.33,0.3 0.49,0.72 0.49,1.25 0,0.61 -0.24,1.1 -0.73,1.45 -0.48,0.35 -1.15,0.53 -1.99,0.53 -0.35,0 -0.72,-0.03 -1.1,-0.1 -0.38,-0.07 -0.78,-0.17 -1.2,-0.3 v -1.13 c 0.4,0.21 0.79,0.36 1.17,0.47 0.39,0.1 0.78,0.16 1.16,0.16 0.5,0 0.89,-0.09 1.16,-0.26 0.28,-0.17 0.42,-0.42 0.42,-0.74 0,-0.3 -0.1,-0.52 -0.3,-0.68 -0.2,-0.15 -0.63,-0.3 -1.3,-0.45 l -0.37,-0.08 c -0.67,-0.14 -1.15,-0.36 -1.45,-0.65 -0.29,-0.3 -0.44,-0.69 -0.44,-1.19 0,-0.63 0.22,-1.11 0.66,-1.44 0.43,-0.33 1.05,-0.5 1.85,-0.5 0.4,0 0.78,0.03 1.13,0.09 0.35,0.05 0.68,0.14 0.97,0.25 z m 7.53,2.41 v 3.97 h -1.08 v -3.92 c 0,-0.63 -0.12,-1.09 -0.36,-1.4 -0.25,-0.31 -0.61,-0.46 -1.09,-0.46 -0.58,0 -1.04,0.18 -1.38,0.55 -0.34,0.37 -0.51,0.88 -0.51,1.53 v 3.7 h -1.08 v -9.13 h 1.08 v 3.58 c 0.26,-0.39 0.57,-0.69 0.91,-0.88 0.35,-0.19 0.76,-0.29 1.21,-0.29 0.75,0 1.33,0.23 1.72,0.7 0.39,0.46 0.58,1.14 0.58,2.05 z m 5.12,0.67 c -0.86,0 -1.46,0.1 -1.8,0.3 -0.34,0.2 -0.51,0.54 -0.51,1.02 0,0.38 0.13,0.69 0.38,0.91 0.26,0.22 0.6,0.34 1.03,0.34 0.6,0 1.08,-0.22 1.44,-0.64 0.36,-0.42 0.54,-0.98 0.54,-1.69 v -0.24 z m 2.16,-0.45 v 3.75 h -1.08 v -1 c -0.25,0.4 -0.56,0.69 -0.92,0.88 -0.37,0.2 -0.81,0.29 -1.34,0.29 -0.68,0 -1.22,-0.19 -1.61,-0.57 -0.4,-0.38 -0.6,-0.88 -0.6,-1.51 0,-0.74 0.25,-1.29 0.74,-1.67 0.5,-0.37 1.24,-0.56 2.22,-0.56 h 1.51 v -0.11 c 0,-0.5 -0.16,-0.89 -0.49,-1.16 -0.33,-0.27 -0.79,-0.4 -1.37,-0.4 -0.37,0 -0.74,0.04 -1.1,0.14 -0.36,0.09 -0.7,0.23 -1.02,0.4 v -1 c 0.39,-0.15 0.78,-0.27 1.15,-0.34 0.36,-0.07 0.73,-0.11 1.08,-0.11 0.95,0 1.66,0.25 2.13,0.74 0.46,0.48 0.7,1.23 0.7,2.23 z m 6.02,-1.81 c -0.12,-0.07 -0.25,-0.11 -0.39,-0.15 -0.14,-0.04 -0.3,-0.06 -0.48,-0.06 -0.6,0 -1.07,0.2 -1.4,0.6 -0.33,0.39 -0.49,0.97 -0.49,1.72 v 3.45 h -1.08 v -6.56 h 1.08 v 1.01 c 0.23,-0.39 0.52,-0.69 0.89,-0.88 0.36,-0.19 0.81,-0.29 1.33,-0.29 0.07,0 0.15,0.01 0.24,0.02 0.09,0.01 0.18,0.02 0.29,0.04 z m 6.75,2.01 v 0.52 h -4.97 c 0.05,0.75 0.28,1.32 0.68,1.7 0.4,0.39 0.96,0.58 1.67,0.58 0.41,0 0.82,-0.05 1.21,-0.15 0.39,-0.1 0.78,-0.25 1.16,-0.46 v 1.03 c -0.4,0.16 -0.8,0.28 -1.2,0.37 -0.41,0.09 -0.82,0.13 -1.24,0.13 -1.04,0 -1.87,-0.3 -2.48,-0.91 -0.62,-0.61 -0.92,-1.44 -0.92,-2.48 0,-1.07 0.29,-1.92 0.87,-2.55 0.59,-0.63 1.37,-0.95 2.35,-0.95 0.88,0 1.58,0.28 2.1,0.85 0.51,0.57 0.77,1.34 0.77,2.32 z m -1.08,-0.33 c -0.01,-0.58 -0.17,-1.05 -0.5,-1.4 -0.32,-0.36 -0.75,-0.53 -1.28,-0.53 -0.6,0 -1.08,0.17 -1.44,0.51 -0.36,0.35 -0.57,0.83 -0.62,1.44 z" /><path
                       id="path106"
                       style="fill:#ffffff;fill-opacity:1;fill-rule:nonzero;stroke:none"
                       d="m 683.89,833.39 v 22 c 0,2.2 1.79,4 4,4 h 37.45 c 2.21,0 4,-1.8 4,-4 v -22 c 0,-2.21 -1.79,-4 -4,-4 h -37.45 c -2.21,0 -4,1.79 -4,4 z" /><path
                       id="path108"
                       style="fill:none;stroke:#000000;stroke-width:1;stroke-linecap:butt;stroke-linejoin:miter;stroke-miterlimit:1.45000005;stroke-dasharray:none;stroke-opacity:1"
                       d="m 683.89,833.39 v 22 c 0,2.2 1.79,4 4,4 h 37.45 c 2.21,0 4,-1.8 4,-4 v -22 c 0,-2.21 -1.79,-4 -4,-4 h -37.45 c -2.21,0 -4,1.79 -4,4 z" /><path
                       id="path110"
                       style="fill:#000000;fill-opacity:1;fill-rule:nonzero;stroke:none"
                       d="m 698.6,839.41 h 1.07 v 9.13 h -1.07 z m 5.88,3.32 c -0.58,0 -1.03,0.22 -1.37,0.68 -0.34,0.45 -0.51,1.07 -0.51,1.85 0,0.79 0.17,1.41 0.5,1.86 0.34,0.45 0.79,0.67 1.38,0.67 0.57,0 1.03,-0.23 1.36,-0.68 0.34,-0.45 0.51,-1.07 0.51,-1.85 0,-0.77 -0.17,-1.39 -0.51,-1.85 -0.33,-0.45 -0.79,-0.68 -1.36,-0.68 z m 0,-0.91 c 0.93,0 1.67,0.31 2.21,0.91 0.53,0.61 0.8,1.46 0.8,2.53 0,1.07 -0.27,1.91 -0.8,2.53 -0.54,0.61 -1.28,0.92 -2.21,0.92 -0.94,0 -1.68,-0.31 -2.21,-0.92 -0.54,-0.62 -0.81,-1.46 -0.81,-2.53 0,-1.07 0.27,-1.92 0.81,-2.53 0.53,-0.6 1.27,-0.91 2.21,-0.91 z m 9.12,3.36 c 0,-0.78 -0.16,-1.39 -0.48,-1.81 -0.33,-0.43 -0.78,-0.64 -1.36,-0.64 -0.58,0 -1.02,0.21 -1.35,0.64 -0.32,0.42 -0.48,1.03 -0.48,1.81 0,0.78 0.16,1.39 0.48,1.81 0.33,0.43 0.77,0.64 1.35,0.64 0.58,0 1.03,-0.21 1.36,-0.64 0.32,-0.42 0.48,-1.03 0.48,-1.81 z m 1.08,2.55 c 0,1.11 -0.25,1.94 -0.74,2.49 -0.5,0.55 -1.26,0.82 -2.29,0.82 -0.38,0 -0.73,-0.03 -1.07,-0.09 -0.34,-0.05 -0.67,-0.14 -0.98,-0.25 v -1.05 c 0.31,0.17 0.63,0.29 0.94,0.37 0.31,0.09 0.62,0.13 0.94,0.13 0.7,0 1.23,-0.19 1.59,-0.56 0.35,-0.37 0.53,-0.93 0.53,-1.68 v -0.53 c -0.23,0.39 -0.52,0.68 -0.86,0.87 -0.34,0.19 -0.76,0.29 -1.25,0.29 -0.8,0 -1.45,-0.31 -1.94,-0.92 -0.5,-0.62 -0.75,-1.43 -0.75,-2.44 0,-1.01 0.25,-1.82 0.75,-2.44 0.49,-0.61 1.14,-0.92 1.94,-0.92 0.49,0 0.91,0.1 1.25,0.29 0.34,0.19 0.63,0.48 0.86,0.87 v -1 h 1.08 z" /><path
                       id="path112"
                       style="fill:#ffffff;fill-opacity:1;fill-rule:nonzero;stroke:none"
                       d="m 683.89,797.19 v 22 c 0,2.2 1.79,4 4,4 h 37.45 c 2.21,0 4,-1.8 4,-4 v -22 c 0,-2.21 -1.79,-4 -4,-4 h -37.45 c -2.21,0 -4,1.79 -4,4 z" /><path
                       id="path114"
                       style="fill:none;stroke:#000000;stroke-width:1;stroke-linecap:butt;stroke-linejoin:miter;stroke-miterlimit:1.45000005;stroke-dasharray:none;stroke-opacity:1"
                       d="m 683.89,797.19 v 22 c 0,2.2 1.79,4 4,4 h 37.45 c 2.21,0 4,-1.8 4,-4 v -22 c 0,-2.21 -1.79,-4 -4,-4 h -37.45 c -2.21,0 -4,1.79 -4,4 z" /><path
                       id="path116"
                       style="fill:#000000;fill-opacity:1;fill-rule:nonzero;stroke:none"
                       d="m 696.82,803.92 v 1.86 h 2.21 v 0.84 h -2.21 v 3.56 c 0,0.53 0.07,0.88 0.21,1.03 0.15,0.15 0.45,0.22 0.89,0.22 h 1.11 v 0.91 h -1.11 c -0.83,0 -1.4,-0.16 -1.72,-0.47 -0.32,-0.31 -0.48,-0.87 -0.48,-1.69 v -3.56 h -0.78 v -0.84 h 0.78 v -1.86 z m 8.73,3.12 c 0.27,-0.49 0.6,-0.85 0.97,-1.08 0.38,-0.22 0.82,-0.34 1.33,-0.34 0.69,0 1.21,0.24 1.58,0.72 0.37,0.48 0.56,1.16 0.56,2.03 v 3.97 h -1.08 v -3.92 c 0,-0.64 -0.11,-1.11 -0.34,-1.41 -0.22,-0.3 -0.56,-0.45 -1.02,-0.45 -0.56,0 -1,0.18 -1.33,0.55 -0.32,0.37 -0.48,0.88 -0.48,1.53 v 3.7 h -1.08 v -3.92 c 0,-0.64 -0.11,-1.11 -0.34,-1.41 -0.22,-0.3 -0.57,-0.45 -1.03,-0.45 -0.56,0 -0.99,0.18 -1.32,0.55 -0.32,0.37 -0.48,0.88 -0.48,1.53 v 3.7 h -1.08 v -6.56 h 1.08 v 1.01 c 0.25,-0.39 0.55,-0.69 0.89,-0.88 0.34,-0.19 0.75,-0.29 1.22,-0.29 0.48,0 0.88,0.12 1.22,0.36 0.33,0.24 0.58,0.59 0.73,1.06 z m 7.63,4.32 v 3.48 h -1.08 v -9.06 h 1.08 v 1 c 0.23,-0.4 0.51,-0.69 0.86,-0.88 0.34,-0.19 0.75,-0.28 1.23,-0.28 0.8,0 1.46,0.32 1.96,0.95 0.5,0.63 0.75,1.46 0.75,2.49 0,1.03 -0.25,1.86 -0.75,2.5 -0.5,0.63 -1.16,0.95 -1.96,0.95 -0.48,0 -0.89,-0.09 -1.23,-0.29 -0.35,-0.19 -0.63,-0.48 -0.86,-0.86 z m 3.67,-2.3 c 0,-0.79 -0.16,-1.41 -0.49,-1.86 -0.33,-0.45 -0.78,-0.67 -1.34,-0.67 -0.57,0 -1.02,0.22 -1.35,0.67 -0.33,0.45 -0.49,1.07 -0.49,1.86 0,0.79 0.16,1.41 0.49,1.87 0.33,0.45 0.78,0.68 1.35,0.68 0.56,0 1.01,-0.23 1.34,-0.68 0.33,-0.46 0.49,-1.08 0.49,-1.87 z" /><path
                       id="path118"
                       style="fill:#ffffff;fill-opacity:1;fill-rule:nonzero;stroke:none"
                       d="m 683.89,398.99 v 22 c 0,2.2 1.79,4 4,4 h 37.45 c 2.21,0 4,-1.8 4,-4 v -22 c 0,-2.21 -1.79,-4 -4,-4 h -37.45 c -2.21,0 -4,1.79 -4,4 z" /><path
                       id="path120"
                       style="fill:none;stroke:#000000;stroke-width:1;stroke-linecap:butt;stroke-linejoin:miter;stroke-miterlimit:1.45000005;stroke-dasharray:none;stroke-opacity:1"
                       d="m 683.89,398.99 v 22 c 0,2.2 1.79,4 4,4 h 37.45 c 2.21,0 4,-1.8 4,-4 v -22 c 0,-2.21 -1.79,-4 -4,-4 h -37.45 c -2.21,0 -4,1.79 -4,4 z" /><path
                       id="path122"
                       style="fill:#000000;fill-opacity:1;fill-rule:nonzero;stroke:none"
                       d="m 690.73,411.55 v -3.97 h 1.08 v 3.93 c 0,0.62 0.12,1.08 0.36,1.4 0.25,0.31 0.61,0.46 1.09,0.46 0.58,0 1.04,-0.18 1.38,-0.55 0.34,-0.37 0.51,-0.88 0.51,-1.52 v -3.72 h 1.08 v 6.56 h -1.08 v -1.02 c -0.26,0.41 -0.56,0.71 -0.91,0.9 -0.34,0.2 -0.74,0.29 -1.2,0.29 -0.76,0 -1.33,-0.23 -1.72,-0.7 -0.4,-0.47 -0.59,-1.16 -0.59,-2.06 z m 2.72,-4.13 z m 9.18,0.34 v 1.04 c -0.3,-0.16 -0.62,-0.28 -0.94,-0.36 -0.33,-0.07 -0.67,-0.11 -1.03,-0.11 -0.53,0 -0.93,0.08 -1.2,0.24 -0.27,0.16 -0.41,0.41 -0.41,0.74 0,0.25 0.1,0.45 0.29,0.59 0.2,0.14 0.58,0.27 1.17,0.4 l 0.36,0.09 c 0.77,0.16 1.31,0.39 1.64,0.69 0.32,0.3 0.48,0.72 0.48,1.25 0,0.61 -0.24,1.1 -0.73,1.45 -0.48,0.35 -1.14,0.53 -1.99,0.53 -0.35,0 -0.72,-0.03 -1.1,-0.1 -0.38,-0.07 -0.78,-0.17 -1.19,-0.3 v -1.13 c 0.39,0.21 0.78,0.36 1.17,0.47 0.38,0.1 0.77,0.16 1.15,0.16 0.5,0 0.89,-0.09 1.17,-0.26 0.27,-0.17 0.41,-0.42 0.41,-0.74 0,-0.3 -0.1,-0.52 -0.3,-0.68 -0.19,-0.15 -0.63,-0.3 -1.29,-0.45 l -0.38,-0.08 c -0.66,-0.14 -1.15,-0.36 -1.44,-0.65 -0.3,-0.3 -0.45,-0.69 -0.45,-1.19 0,-0.63 0.22,-1.11 0.66,-1.44 0.44,-0.33 1.06,-0.5 1.86,-0.5 0.39,0 0.77,0.03 1.12,0.09 0.36,0.05 0.68,0.14 0.97,0.25 z m 7.69,2.83 v 0.52 h -4.97 c 0.05,0.75 0.28,1.32 0.68,1.7 0.4,0.39 0.96,0.58 1.67,0.58 0.41,0 0.82,-0.05 1.21,-0.15 0.39,-0.1 0.78,-0.25 1.16,-0.46 v 1.03 c -0.39,0.16 -0.8,0.28 -1.2,0.37 -0.41,0.09 -0.82,0.13 -1.24,0.13 -1.04,0 -1.87,-0.3 -2.48,-0.91 -0.62,-0.61 -0.92,-1.44 -0.92,-2.48 0,-1.07 0.29,-1.92 0.87,-2.55 0.59,-0.63 1.37,-0.95 2.35,-0.95 0.88,0 1.58,0.28 2.1,0.85 0.51,0.57 0.77,1.34 0.77,2.32 z m -1.08,-0.33 c -0.01,-0.58 -0.17,-1.05 -0.5,-1.4 -0.32,-0.36 -0.75,-0.53 -1.28,-0.53 -0.6,0 -1.08,0.17 -1.44,0.51 -0.36,0.35 -0.57,0.83 -0.62,1.44 z m 6.65,-1.68 c -0.12,-0.07 -0.26,-0.11 -0.4,-0.15 -0.14,-0.04 -0.3,-0.06 -0.47,-0.06 -0.61,0 -1.07,0.2 -1.4,0.6 -0.33,0.39 -0.49,0.97 -0.49,1.72 v 3.45 h -1.08 v -6.56 h 1.08 v 1.01 c 0.22,-0.39 0.52,-0.69 0.89,-0.88 0.36,-0.19 0.8,-0.29 1.32,-0.29 0.08,0 0.16,0.01 0.25,0.02 0.09,0.01 0.18,0.02 0.29,0.04 z m 1.48,4.56 h 1.94 v -6.67 l -2.11,0.42 v -1.08 l 2.09,-0.42 h 1.19 v 7.75 h 1.94 v 1 h -5.05 z" /><path
                       id="path124"
                       style="fill:#ffffff;fill-opacity:1;fill-rule:nonzero;stroke:none"
                       d="m 683.89,435.19 v 22 c 0,2.2 1.79,4 4,4 h 37.45 c 2.21,0 4,-1.8 4,-4 v -22 c 0,-2.21 -1.79,-4 -4,-4 h -37.45 c -2.21,0 -4,1.79 -4,4 z" /><path
                       id="path126"
                       style="fill:none;stroke:#000000;stroke-width:1;stroke-linecap:butt;stroke-linejoin:miter;stroke-miterlimit:1.45000005;stroke-dasharray:none;stroke-opacity:1"
                       d="m 683.89,435.19 v 22 c 0,2.2 1.79,4 4,4 h 37.45 c 2.21,0 4,-1.8 4,-4 v -22 c 0,-2.21 -1.79,-4 -4,-4 h -37.45 c -2.21,0 -4,1.79 -4,4 z" /><path
                       id="path128"
                       style="fill:#000000;fill-opacity:1;fill-rule:nonzero;stroke:none"
                       d="m 690.73,447.75 v -3.97 h 1.08 v 3.93 c 0,0.62 0.12,1.08 0.36,1.4 0.25,0.31 0.61,0.46 1.09,0.46 0.58,0 1.04,-0.18 1.38,-0.55 0.34,-0.37 0.51,-0.88 0.51,-1.52 v -3.72 h 1.08 v 6.56 h -1.08 v -1.02 c -0.26,0.41 -0.56,0.71 -0.91,0.9 -0.34,0.2 -0.74,0.29 -1.2,0.29 -0.76,0 -1.33,-0.23 -1.72,-0.7 -0.4,-0.47 -0.59,-1.16 -0.59,-2.06 z m 2.72,-4.13 z m 9.18,0.34 V 445 c -0.3,-0.16 -0.62,-0.28 -0.94,-0.36 -0.33,-0.07 -0.67,-0.11 -1.03,-0.11 -0.53,0 -0.93,0.08 -1.2,0.24 -0.27,0.16 -0.41,0.41 -0.41,0.74 0,0.25 0.1,0.45 0.29,0.59 0.2,0.14 0.58,0.27 1.17,0.4 l 0.36,0.09 c 0.77,0.16 1.31,0.38 1.64,0.69 0.32,0.3 0.48,0.72 0.48,1.25 0,0.61 -0.24,1.1 -0.73,1.45 -0.48,0.35 -1.14,0.53 -1.99,0.53 -0.35,0 -0.72,-0.03 -1.1,-0.1 -0.38,-0.07 -0.78,-0.17 -1.19,-0.3 v -1.13 c 0.39,0.21 0.78,0.36 1.17,0.47 0.38,0.1 0.77,0.16 1.15,0.16 0.5,0 0.89,-0.09 1.17,-0.26 0.27,-0.17 0.41,-0.42 0.41,-0.74 0,-0.3 -0.1,-0.52 -0.3,-0.68 -0.19,-0.15 -0.63,-0.3 -1.29,-0.45 l -0.38,-0.08 c -0.66,-0.14 -1.15,-0.36 -1.44,-0.65 -0.3,-0.3 -0.45,-0.69 -0.45,-1.19 0,-0.63 0.22,-1.11 0.66,-1.44 0.44,-0.33 1.06,-0.5 1.86,-0.5 0.39,0 0.77,0.03 1.12,0.09 0.36,0.05 0.68,0.14 0.97,0.25 z m 7.69,2.83 v 0.52 h -4.97 c 0.05,0.75 0.28,1.32 0.68,1.7 0.4,0.39 0.96,0.58 1.67,0.58 0.41,0 0.82,-0.05 1.21,-0.15 0.39,-0.1 0.78,-0.25 1.16,-0.46 v 1.03 c -0.39,0.16 -0.8,0.28 -1.2,0.37 -0.41,0.09 -0.82,0.13 -1.24,0.13 -1.04,0 -1.87,-0.3 -2.48,-0.91 -0.62,-0.61 -0.92,-1.44 -0.92,-2.48 0,-1.07 0.29,-1.92 0.87,-2.55 0.59,-0.63 1.37,-0.95 2.35,-0.95 0.88,0 1.58,0.28 2.1,0.85 0.51,0.57 0.77,1.34 0.77,2.32 z m -1.08,-0.33 c -0.01,-0.58 -0.17,-1.05 -0.5,-1.4 -0.32,-0.36 -0.75,-0.53 -1.28,-0.53 -0.6,0 -1.08,0.17 -1.44,0.51 -0.36,0.35 -0.57,0.83 -0.62,1.44 z m 6.65,-1.68 c -0.12,-0.07 -0.26,-0.11 -0.4,-0.15 -0.14,-0.04 -0.3,-0.06 -0.47,-0.06 -0.61,0 -1.07,0.2 -1.4,0.6 -0.33,0.39 -0.49,0.97 -0.49,1.72 v 3.45 h -1.08 v -6.56 h 1.08 v 1.01 c 0.22,-0.39 0.52,-0.69 0.89,-0.88 0.36,-0.19 0.8,-0.29 1.32,-0.29 0.08,0 0.16,0.01 0.25,0.02 0.09,0.01 0.18,0.02 0.29,0.04 z m 2.29,4.56 h 4.14 v 1 h -5.56 v -1 c 0.45,-0.46 1.06,-1.08 1.84,-1.87 0.77,-0.78 1.26,-1.29 1.46,-1.52 0.38,-0.42 0.65,-0.77 0.8,-1.07 0.15,-0.3 0.23,-0.59 0.23,-0.87 0,-0.47 -0.16,-0.85 -0.49,-1.14 -0.33,-0.29 -0.75,-0.44 -1.28,-0.44 -0.37,0 -0.76,0.07 -1.17,0.19 -0.42,0.13 -0.86,0.32 -1.33,0.59 v -1.2 c 0.48,-0.19 0.93,-0.33 1.34,-0.43 0.41,-0.1 0.79,-0.15 1.13,-0.15 0.91,0 1.63,0.23 2.18,0.68 0.54,0.46 0.81,1.06 0.81,1.82 0,0.36 -0.07,0.7 -0.21,1.02 -0.13,0.32 -0.38,0.7 -0.73,1.14 -0.1,0.11 -0.42,0.44 -0.94,0.98 -0.52,0.55 -1.26,1.3 -2.22,2.27 z" /><path
                       id="path130"
                       style="fill:#ffffff;fill-opacity:1;fill-rule:nonzero;stroke:none"
                       d="m 566.85,254.19 v 22 c 0,2.2 1.79,4 4,4 h 37.45 c 2.21,0 4,-1.8 4,-4 v -22 c 0,-2.21 -1.79,-4 -4,-4 h -37.45 c -2.21,0 -4,1.79 -4,4 z" /><path
                       id="path132"
                       style="fill:none;stroke:#000000;stroke-width:1;stroke-linecap:butt;stroke-linejoin:miter;stroke-miterlimit:1.45000005;stroke-dasharray:none;stroke-opacity:1"
                       d="m 566.85,254.19 v 22 c 0,2.2 1.79,4 4,4 h 37.45 c 2.21,0 4,-1.8 4,-4 v -22 c 0,-2.21 -1.79,-4 -4,-4 h -37.45 c -2.21,0 -4,1.79 -4,4 z" /><path
                       id="path134"
                       style="fill:#000000;fill-opacity:1;fill-rule:nonzero;stroke:none"
                       d="m 586.14,266.06 c 0,-0.79 -0.17,-1.41 -0.49,-1.86 -0.33,-0.45 -0.78,-0.67 -1.34,-0.67 -0.57,0 -1.02,0.22 -1.35,0.67 -0.33,0.45 -0.49,1.07 -0.49,1.86 0,0.79 0.16,1.41 0.49,1.87 0.33,0.45 0.78,0.68 1.35,0.68 0.56,0 1.01,-0.23 1.34,-0.68 0.32,-0.46 0.49,-1.08 0.49,-1.87 z m -3.67,-2.28 c 0.22,-0.4 0.51,-0.69 0.85,-0.88 0.35,-0.19 0.76,-0.28 1.24,-0.28 0.8,0 1.45,0.32 1.95,0.95 0.5,0.63 0.75,1.46 0.75,2.49 0,1.03 -0.25,1.86 -0.75,2.5 -0.5,0.63 -1.15,0.95 -1.95,0.95 -0.48,0 -0.89,-0.09 -1.24,-0.29 -0.34,-0.19 -0.63,-0.48 -0.85,-0.86 v 0.98 h -1.08 v -9.13 h 1.08 z m 6.57,-1 h 1.07 v 6.56 h -1.07 z m 0,-2.57 h 1.07 v 1.38 h -1.07 z m 8.8,5.16 v 3.97 h -1.08 v -3.92 c 0,-0.63 -0.12,-1.09 -0.37,-1.4 -0.24,-0.31 -0.6,-0.46 -1.08,-0.46 -0.59,0 -1.05,0.18 -1.39,0.55 -0.33,0.37 -0.5,0.88 -0.5,1.53 v 3.7 h -1.08 v -6.56 h 1.08 v 1.01 c 0.26,-0.39 0.56,-0.69 0.91,-0.88 0.35,-0.19 0.75,-0.29 1.21,-0.29 0.75,0 1.32,0.23 1.71,0.7 0.39,0.46 0.59,1.14 0.59,2.05 z" /><path
                       id="path136"
                       style="fill:#ffffff;fill-opacity:1;fill-rule:nonzero;stroke:none"
                       d="m 566.85,290.39 v 22 c 0,2.2 1.79,4 4,4 h 37.45 c 2.21,0 4,-1.8 4,-4 v -22 c 0,-2.21 -1.79,-4 -4,-4 h -37.45 c -2.21,0 -4,1.79 -4,4 z" /><path
                       id="path138"
                       style="fill:none;stroke:#000000;stroke-width:1;stroke-linecap:butt;stroke-linejoin:miter;stroke-miterlimit:1.45000005;stroke-dasharray:none;stroke-opacity:1"
                       d="m 566.85,290.39 v 22 c 0,2.2 1.79,4 4,4 h 37.45 c 2.21,0 4,-1.8 4,-4 v -22 c 0,-2.21 -1.79,-4 -4,-4 h -37.45 c -2.21,0 -4,1.79 -4,4 z" /><path
                       id="path140"
                       style="fill:#000000;fill-opacity:1;fill-rule:nonzero;stroke:none"
                       d="m 581.91,302.26 c 0,-0.79 -0.16,-1.41 -0.49,-1.86 -0.33,-0.45 -0.77,-0.67 -1.34,-0.67 -0.57,0 -1.02,0.22 -1.35,0.67 -0.33,0.45 -0.49,1.07 -0.49,1.86 0,0.79 0.16,1.41 0.49,1.87 0.33,0.45 0.78,0.68 1.35,0.68 0.57,0 1.01,-0.23 1.34,-0.68 0.33,-0.46 0.49,-1.08 0.49,-1.87 z m -3.67,-2.28 c 0.23,-0.4 0.52,-0.69 0.86,-0.88 0.34,-0.19 0.76,-0.28 1.23,-0.28 0.81,0 1.46,0.32 1.96,0.95 0.5,0.63 0.75,1.46 0.75,2.49 0,1.03 -0.25,1.86 -0.75,2.5 -0.5,0.63 -1.15,0.95 -1.96,0.95 -0.47,0 -0.89,-0.09 -1.23,-0.29 -0.34,-0.19 -0.63,-0.48 -0.86,-0.86 v 0.98 h -1.08 v -9.13 h 1.08 z m 9.12,-0.25 c -0.57,0 -1.03,0.22 -1.37,0.68 -0.34,0.45 -0.51,1.07 -0.51,1.85 0,0.79 0.17,1.41 0.5,1.86 0.34,0.45 0.79,0.67 1.38,0.67 0.57,0 1.03,-0.23 1.37,-0.68 0.33,-0.45 0.5,-1.07 0.5,-1.85 0,-0.77 -0.17,-1.39 -0.5,-1.85 -0.34,-0.45 -0.8,-0.68 -1.37,-0.68 z m 0,-0.91 c 0.94,0 1.67,0.31 2.21,0.91 0.54,0.61 0.8,1.46 0.8,2.53 0,1.07 -0.26,1.91 -0.8,2.53 -0.54,0.61 -1.27,0.92 -2.21,0.92 -0.94,0 -1.68,-0.31 -2.21,-0.92 -0.54,-0.62 -0.81,-1.46 -0.81,-2.53 0,-1.07 0.27,-1.92 0.81,-2.53 0.53,-0.6 1.27,-0.91 2.21,-0.91 z m 7.34,0.91 c -0.57,0 -1.03,0.22 -1.37,0.68 -0.34,0.45 -0.51,1.07 -0.51,1.85 0,0.79 0.17,1.41 0.5,1.86 0.34,0.45 0.8,0.67 1.38,0.67 0.57,0 1.03,-0.23 1.37,-0.68 0.34,-0.45 0.5,-1.07 0.5,-1.85 0,-0.77 -0.16,-1.39 -0.5,-1.85 -0.34,-0.45 -0.8,-0.68 -1.37,-0.68 z m 0,-0.91 c 0.94,0 1.67,0.31 2.21,0.91 0.54,0.61 0.81,1.46 0.81,2.53 0,1.07 -0.27,1.91 -0.81,2.53 -0.54,0.61 -1.27,0.92 -2.21,0.92 -0.94,0 -1.67,-0.31 -2.21,-0.92 -0.54,-0.62 -0.81,-1.46 -0.81,-2.53 0,-1.07 0.27,-1.92 0.81,-2.53 0.54,-0.6 1.27,-0.91 2.21,-0.91 z m 5.87,-1.7 v 1.86 h 2.22 v 0.84 h -2.22 v 3.56 c 0,0.53 0.08,0.88 0.22,1.03 0.15,0.15 0.44,0.22 0.89,0.22 h 1.11 v 0.91 h -1.11 c -0.83,0 -1.41,-0.16 -1.72,-0.47 -0.32,-0.31 -0.48,-0.87 -0.48,-1.69 v -3.56 h -0.78 v -0.84 h 0.78 v -1.86 z" /><path
                       id="path142"
                       style="fill:#ffffff;fill-opacity:1;fill-rule:nonzero;stroke:none"
                       d="m 566.85,326.59 v 22 c 0,2.2 1.79,4 4,4 h 37.45 c 2.21,0 4,-1.8 4,-4 v -22 c 0,-2.21 -1.79,-4 -4,-4 h -37.45 c -2.21,0 -4,1.79 -4,4 z" /><path
                       id="path144"
                       style="fill:none;stroke:#000000;stroke-width:1;stroke-linecap:butt;stroke-linejoin:miter;stroke-miterlimit:1.45000005;stroke-dasharray:none;stroke-opacity:1"
                       d="m 566.85,326.59 v 22 c 0,2.2 1.79,4 4,4 h 37.45 c 2.21,0 4,-1.8 4,-4 v -22 c 0,-2.21 -1.79,-4 -4,-4 h -37.45 c -2.21,0 -4,1.79 -4,4 z" /><path
                       id="path146"
                       style="fill:#000000;fill-opacity:1;fill-rule:nonzero;stroke:none"
                       d="m 583.97,336.18 v -3.57 h 1.08 v 9.13 h -1.08 v -0.98 c -0.22,0.38 -0.51,0.67 -0.86,0.86 -0.34,0.2 -0.76,0.29 -1.25,0.29 -0.79,0 -1.43,-0.32 -1.93,-0.95 -0.5,-0.64 -0.75,-1.47 -0.75,-2.5 0,-1.03 0.25,-1.86 0.75,-2.49 0.5,-0.63 1.14,-0.95 1.93,-0.95 0.49,0 0.91,0.09 1.25,0.28 0.35,0.19 0.64,0.48 0.86,0.88 z m -3.67,2.28 c 0,0.79 0.16,1.41 0.49,1.87 0.32,0.45 0.77,0.68 1.34,0.68 0.57,0 1.02,-0.23 1.35,-0.68 0.33,-0.46 0.49,-1.08 0.49,-1.87 0,-0.79 -0.16,-1.41 -0.49,-1.86 -0.33,-0.45 -0.78,-0.67 -1.35,-0.67 -0.57,0 -1.02,0.22 -1.34,0.67 -0.33,0.45 -0.49,1.07 -0.49,1.86 z m 12.59,-0.27 v 0.52 h -4.97 c 0.05,0.75 0.28,1.32 0.68,1.7 0.4,0.39 0.95,0.58 1.66,0.58 0.42,0 0.82,-0.05 1.21,-0.15 0.39,-0.1 0.78,-0.25 1.17,-0.46 v 1.03 c -0.4,0.16 -0.8,0.28 -1.2,0.37 -0.41,0.09 -0.82,0.13 -1.24,0.13 -1.04,0 -1.87,-0.3 -2.48,-0.91 -0.62,-0.61 -0.93,-1.44 -0.93,-2.48 0,-1.07 0.3,-1.92 0.88,-2.55 0.58,-0.63 1.36,-0.95 2.34,-0.95 0.89,0 1.59,0.28 2.1,0.85 0.52,0.57 0.78,1.34 0.78,2.32 z m -1.08,-0.33 c -0.01,-0.58 -0.18,-1.05 -0.5,-1.4 -0.32,-0.36 -0.75,-0.53 -1.28,-0.53 -0.61,0 -1.09,0.17 -1.45,0.51 -0.36,0.35 -0.56,0.83 -0.61,1.44 z m 2.07,-2.68 h 1.14 l 2.05,5.5 2.06,-5.5 h 1.14 l -2.47,6.56 h -1.47 z" /><path
                       id="path148"
                       style="fill:#ffffff;fill-opacity:1;fill-rule:nonzero;stroke:none"
                       d="m 566.85,362.79 v 22 c 0,2.2 1.79,4 4,4 h 37.45 c 2.21,0 4,-1.8 4,-4 v -22 c 0,-2.21 -1.79,-4 -4,-4 h -37.45 c -2.21,0 -4,1.79 -4,4 z" /><path
                       id="path150"
                       style="fill:none;stroke:#000000;stroke-width:1;stroke-linecap:butt;stroke-linejoin:miter;stroke-miterlimit:1.45000005;stroke-dasharray:none;stroke-opacity:1"
                       d="m 566.85,362.79 v 22 c 0,2.2 1.79,4 4,4 h 37.45 c 2.21,0 4,-1.8 4,-4 v -22 c 0,-2.21 -1.79,-4 -4,-4 h -37.45 c -2.21,0 -4,1.79 -4,4 z" /><path
                       id="path152"
                       style="fill:#000000;fill-opacity:1;fill-rule:nonzero;stroke:none"
                       d="m 586.98,374.39 v 0.52 h -4.97 c 0.05,0.75 0.28,1.32 0.68,1.7 0.4,0.39 0.96,0.58 1.66,0.58 0.42,0 0.82,-0.05 1.22,-0.15 0.39,-0.1 0.77,-0.25 1.16,-0.46 v 1.03 c -0.4,0.16 -0.8,0.28 -1.2,0.37 -0.41,0.09 -0.82,0.13 -1.24,0.13 -1.04,0 -1.87,-0.3 -2.48,-0.91 -0.62,-0.61 -0.92,-1.44 -0.92,-2.48 0,-1.07 0.29,-1.92 0.87,-2.55 0.58,-0.63 1.36,-0.95 2.34,-0.95 0.89,0 1.59,0.28 2.11,0.85 0.51,0.57 0.77,1.34 0.77,2.32 z m -1.08,-0.33 c -0.01,-0.58 -0.18,-1.05 -0.5,-1.4 -0.32,-0.36 -0.75,-0.53 -1.28,-0.53 -0.6,0 -1.09,0.17 -1.45,0.51 -0.35,0.35 -0.56,0.83 -0.61,1.44 z m 3.92,-4.54 v 1.86 h 2.21 v 0.84 h -2.21 v 3.56 c 0,0.53 0.07,0.88 0.21,1.03 0.15,0.15 0.45,0.22 0.89,0.22 h 1.11 v 0.91 h -1.11 c -0.83,0 -1.4,-0.16 -1.72,-0.47 -0.32,-0.31 -0.48,-0.87 -0.48,-1.69 v -3.56 h -0.78 v -0.84 h 0.78 v -1.86 z m 8.36,2.11 v 1.01 c -0.32,-0.17 -0.62,-0.3 -0.93,-0.39 -0.3,-0.08 -0.6,-0.12 -0.92,-0.12 -0.71,0 -1.25,0.22 -1.64,0.66 -0.38,0.44 -0.58,1.07 -0.58,1.87 0,0.8 0.2,1.42 0.58,1.87 0.39,0.44 0.93,0.66 1.64,0.66 0.32,0 0.62,-0.04 0.92,-0.13 0.31,-0.08 0.61,-0.2 0.93,-0.37 v 1 c -0.31,0.13 -0.62,0.24 -0.94,0.31 -0.32,0.07 -0.67,0.11 -1.03,0.11 -0.99,0 -1.78,-0.31 -2.36,-0.93 -0.59,-0.62 -0.88,-1.46 -0.88,-2.52 0,-1.06 0.3,-1.9 0.89,-2.52 0.58,-0.61 1.39,-0.92 2.43,-0.92 0.32,0 0.64,0.03 0.96,0.1 0.31,0.07 0.62,0.17 0.93,0.31 z" /><path
                       id="path154"
                       style="fill:#ffffff;fill-opacity:1;fill-rule:nonzero;stroke:none"
                       d="m 566.85,398.99 v 22 c 0,2.2 1.79,4 4,4 h 37.45 c 2.21,0 4,-1.8 4,-4 v -22 c 0,-2.21 -1.79,-4 -4,-4 h -37.45 c -2.21,0 -4,1.79 -4,4 z" /><path
                       id="path156"
                       style="fill:none;stroke:#000000;stroke-width:1;stroke-linecap:butt;stroke-linejoin:miter;stroke-miterlimit:1.45000005;stroke-dasharray:none;stroke-opacity:1"
                       d="m 566.85,398.99 v 22 c 0,2.2 1.79,4 4,4 h 37.45 c 2.21,0 4,-1.8 4,-4 v -22 c 0,-2.21 -1.79,-4 -4,-4 h -37.45 c -2.21,0 -4,1.79 -4,4 z" /><path
                       id="path158"
                       style="fill:#000000;fill-opacity:1;fill-rule:nonzero;stroke:none"
                       d="m 579.16,410.17 v 3.97 h -1.08 v -3.92 c 0,-0.63 -0.12,-1.09 -0.37,-1.4 -0.24,-0.31 -0.61,-0.46 -1.09,-0.46 -0.58,0 -1.04,0.18 -1.38,0.55 -0.34,0.37 -0.51,0.88 -0.51,1.53 v 3.7 h -1.07 v -9.13 h 1.07 v 3.58 c 0.26,-0.39 0.57,-0.69 0.92,-0.88 0.35,-0.19 0.75,-0.29 1.21,-0.29 0.75,0 1.32,0.23 1.71,0.7 0.39,0.46 0.59,1.14 0.59,2.05 z m 4.68,-1.84 c -0.57,0 -1.03,0.22 -1.37,0.68 -0.34,0.45 -0.51,1.07 -0.51,1.85 0,0.79 0.17,1.41 0.5,1.86 0.34,0.45 0.8,0.67 1.38,0.67 0.57,0 1.03,-0.23 1.37,-0.68 0.34,-0.45 0.5,-1.07 0.5,-1.85 0,-0.77 -0.16,-1.39 -0.5,-1.85 -0.34,-0.45 -0.8,-0.68 -1.37,-0.68 z m 0,-0.91 c 0.94,0 1.67,0.31 2.21,0.91 0.54,0.61 0.81,1.46 0.81,2.53 0,1.07 -0.27,1.92 -0.81,2.53 -0.54,0.61 -1.27,0.92 -2.21,0.92 -0.94,0 -1.68,-0.31 -2.21,-0.92 -0.54,-0.61 -0.81,-1.46 -0.81,-2.53 0,-1.07 0.27,-1.92 0.81,-2.53 0.53,-0.6 1.27,-0.91 2.21,-0.91 z m 9.9,1.42 c 0.27,-0.49 0.6,-0.85 0.97,-1.08 0.38,-0.22 0.82,-0.34 1.33,-0.34 0.69,0 1.22,0.24 1.59,0.72 0.37,0.48 0.55,1.16 0.55,2.03 v 3.97 h -1.08 v -3.92 c 0,-0.64 -0.11,-1.11 -0.33,-1.41 -0.23,-0.3 -0.57,-0.45 -1.03,-0.45 -0.56,0 -1,0.18 -1.32,0.55 -0.33,0.37 -0.49,0.88 -0.49,1.53 v 3.7 h -1.08 v -3.92 c 0,-0.64 -0.11,-1.11 -0.33,-1.41 -0.23,-0.3 -0.57,-0.45 -1.04,-0.45 -0.55,0 -0.99,0.18 -1.31,0.55 -0.33,0.37 -0.49,0.88 -0.49,1.53 v 3.7 h -1.08 v -6.56 h 1.08 v 1.01 c 0.25,-0.39 0.55,-0.69 0.89,-0.88 0.35,-0.19 0.75,-0.29 1.22,-0.29 0.48,0 0.89,0.12 1.22,0.36 0.33,0.24 0.58,0.59 0.73,1.06 z m 12.21,1.75 v 0.52 h -4.97 c 0.05,0.75 0.28,1.32 0.68,1.7 0.4,0.39 0.96,0.58 1.66,0.58 0.42,0 0.82,-0.05 1.21,-0.15 0.4,-0.1 0.78,-0.25 1.17,-0.46 v 1.03 c -0.4,0.16 -0.8,0.28 -1.2,0.37 -0.41,0.09 -0.82,0.13 -1.24,0.13 -1.04,0 -1.87,-0.3 -2.48,-0.91 -0.62,-0.61 -0.92,-1.44 -0.92,-2.48 0,-1.07 0.29,-1.92 0.87,-2.55 0.58,-0.63 1.36,-0.95 2.34,-0.95 0.89,0 1.59,0.28 2.11,0.85 0.51,0.57 0.77,1.34 0.77,2.32 z m -1.08,-0.33 c -0.01,-0.58 -0.18,-1.05 -0.5,-1.4 -0.32,-0.36 -0.75,-0.53 -1.28,-0.53 -0.6,0 -1.09,0.17 -1.45,0.51 -0.36,0.35 -0.56,0.83 -0.61,1.44 z" /><path
                       id="path160"
                       style="fill:#ffffff;fill-opacity:1;fill-rule:nonzero;stroke:none"
                       d="m 566.85,435.19 v 22 c 0,2.2 1.79,4 4,4 h 37.45 c 2.21,0 4,-1.8 4,-4 v -22 c 0,-2.21 -1.79,-4 -4,-4 h -37.45 c -2.21,0 -4,1.79 -4,4 z" /><path
                       id="path162"
                       style="fill:none;stroke:#000000;stroke-width:1;stroke-linecap:butt;stroke-linejoin:miter;stroke-miterlimit:1.45000005;stroke-dasharray:none;stroke-opacity:1"
                       d="m 566.85,435.19 v 22 c 0,2.2 1.79,4 4,4 h 37.45 c 2.21,0 4,-1.8 4,-4 v -22 c 0,-2.21 -1.79,-4 -4,-4 h -37.45 c -2.21,0 -4,1.79 -4,4 z" /><path
                       id="path164"
                       style="fill:#000000;fill-opacity:1;fill-rule:nonzero;stroke:none"
                       d="m 583.55,441.21 h 1.08 v 9.13 h -1.08 z m 3.34,2.57 h 1.08 v 6.56 h -1.08 z m 0,-2.57 h 1.08 v 1.38 h -1.08 z m 8.05,5.85 c 0,-0.79 -0.16,-1.41 -0.49,-1.86 -0.33,-0.45 -0.77,-0.67 -1.34,-0.67 -0.57,0 -1.02,0.22 -1.35,0.67 -0.33,0.45 -0.49,1.07 -0.49,1.86 0,0.79 0.16,1.41 0.49,1.87 0.33,0.45 0.78,0.68 1.35,0.68 0.57,0 1.01,-0.23 1.34,-0.68 0.33,-0.46 0.49,-1.08 0.49,-1.87 z m -3.67,-2.28 c 0.23,-0.4 0.51,-0.69 0.86,-0.88 0.34,-0.19 0.75,-0.28 1.23,-0.28 0.8,0 1.46,0.32 1.96,0.95 0.5,0.63 0.75,1.46 0.75,2.49 0,1.03 -0.25,1.86 -0.75,2.5 -0.5,0.63 -1.16,0.95 -1.96,0.95 -0.48,0 -0.89,-0.09 -1.23,-0.29 -0.35,-0.19 -0.63,-0.48 -0.86,-0.86 v 0.98 h -1.08 v -9.13 h 1.08 z" /><path
                       id="path166"
                       style="fill:#ffffff;fill-opacity:1;fill-rule:nonzero;stroke:none"
                       d="m 566.85,471.39 v 22 c 0,2.2 1.79,4 4,4 h 37.45 c 2.21,0 4,-1.8 4,-4 v -22 c 0,-2.21 -1.79,-4 -4,-4 h -37.45 c -2.21,0 -4,1.79 -4,4 z" /><path
                       id="path168"
                       style="fill:none;stroke:#000000;stroke-width:1;stroke-linecap:butt;stroke-linejoin:miter;stroke-miterlimit:1.45000005;stroke-dasharray:none;stroke-opacity:1"
                       d="m 566.85,471.39 v 22 c 0,2.2 1.79,4 4,4 h 37.45 c 2.21,0 4,-1.8 4,-4 v -22 c 0,-2.21 -1.79,-4 -4,-4 h -37.45 c -2.21,0 -4,1.79 -4,4 z" /><path
                       id="path170"
                       style="fill:#000000;fill-opacity:1;fill-rule:nonzero;stroke:none"
                       d="m 583.81,481.24 c 0.27,-0.49 0.59,-0.85 0.97,-1.08 0.37,-0.22 0.81,-0.34 1.32,-0.34 0.69,0 1.22,0.24 1.59,0.72 0.37,0.48 0.55,1.16 0.55,2.03 v 3.97 h -1.07 v -3.92 c 0,-0.64 -0.12,-1.11 -0.34,-1.41 -0.22,-0.3 -0.57,-0.45 -1.02,-0.45 -0.57,0 -1.01,0.18 -1.33,0.55 -0.32,0.37 -0.49,0.88 -0.49,1.53 v 3.7 h -1.07 v -3.92 c 0,-0.64 -0.12,-1.11 -0.34,-1.41 -0.22,-0.3 -0.57,-0.45 -1.04,-0.45 -0.55,0 -0.99,0.18 -1.31,0.55 -0.32,0.37 -0.49,0.88 -0.49,1.53 v 3.7 h -1.07 v -6.56 h 1.07 v 1.01 c 0.25,-0.39 0.55,-0.69 0.89,-0.88 0.35,-0.19 0.75,-0.29 1.22,-0.29 0.48,0 0.89,0.12 1.22,0.36 0.34,0.24 0.58,0.59 0.74,1.06 z m 12.05,1.33 v 3.97 h -1.08 v -3.92 c 0,-0.63 -0.13,-1.09 -0.37,-1.4 -0.25,-0.31 -0.61,-0.46 -1.09,-0.46 -0.58,0 -1.04,0.18 -1.38,0.55 -0.34,0.37 -0.51,0.88 -0.51,1.53 v 3.7 h -1.07 v -6.56 h 1.07 v 1.01 c 0.26,-0.39 0.57,-0.69 0.92,-0.88 0.35,-0.19 0.75,-0.29 1.21,-0.29 0.75,0 1.32,0.23 1.71,0.7 0.39,0.46 0.59,1.14 0.59,2.05 z m 3.21,-4.45 v 1.86 h 2.22 v 0.84 h -2.22 v 3.56 c 0,0.53 0.07,0.88 0.22,1.03 0.14,0.15 0.44,0.22 0.89,0.22 h 1.11 v 0.91 h -1.11 c -0.83,0 -1.41,-0.16 -1.73,-0.47 -0.31,-0.31 -0.47,-0.87 -0.47,-1.69 v -3.56 h -0.79 v -0.84 h 0.79 v -1.86 z" /><path
                       id="path172"
                       style="fill:#ffffff;fill-opacity:1;fill-rule:nonzero;stroke:none"
                       d="m 566.85,507.59 v 22 c 0,2.2 1.79,4 4,4 h 37.45 c 2.21,0 4,-1.8 4,-4 v -22 c 0,-2.21 -1.79,-4 -4,-4 h -37.45 c -2.21,0 -4,1.79 -4,4 z" /><path
                       id="path174"
                       style="fill:none;stroke:#000000;stroke-width:1;stroke-linecap:butt;stroke-linejoin:miter;stroke-miterlimit:1.45000005;stroke-dasharray:none;stroke-opacity:1"
                       d="m 566.85,507.59 v 22 c 0,2.2 1.79,4 4,4 h 37.45 c 2.21,0 4,-1.8 4,-4 v -22 c 0,-2.21 -1.79,-4 -4,-4 h -37.45 c -2.21,0 -4,1.79 -4,4 z" /><path
                       id="path176"
                       style="fill:#000000;fill-opacity:1;fill-rule:nonzero;stroke:none"
                       d="m 583.41,516.93 c -0.57,0 -1.03,0.22 -1.37,0.68 -0.33,0.45 -0.5,1.07 -0.5,1.85 0,0.79 0.16,1.41 0.5,1.86 0.33,0.45 0.79,0.67 1.37,0.67 0.57,0 1.03,-0.23 1.37,-0.68 0.34,-0.45 0.51,-1.07 0.51,-1.85 0,-0.77 -0.17,-1.39 -0.51,-1.85 -0.34,-0.45 -0.8,-0.68 -1.37,-0.68 z m 0,-0.91 c 0.94,0 1.68,0.31 2.21,0.91 0.54,0.61 0.81,1.46 0.81,2.53 0,1.07 -0.27,1.91 -0.81,2.53 -0.53,0.61 -1.27,0.92 -2.21,0.92 -0.94,0 -1.67,-0.31 -2.21,-0.92 -0.54,-0.62 -0.8,-1.46 -0.8,-2.53 0,-1.07 0.26,-1.92 0.8,-2.53 0.54,-0.6 1.27,-0.91 2.21,-0.91 z m 5.84,5.74 v 3.48 h -1.07 v -9.06 h 1.07 v 1 c 0.23,-0.4 0.52,-0.69 0.86,-0.88 0.35,-0.19 0.76,-0.28 1.24,-0.28 0.8,0 1.45,0.32 1.95,0.95 0.5,0.63 0.75,1.46 0.75,2.49 0,1.03 -0.25,1.86 -0.75,2.5 -0.5,0.63 -1.15,0.95 -1.95,0.95 -0.48,0 -0.89,-0.09 -1.24,-0.29 -0.34,-0.19 -0.63,-0.48 -0.86,-0.86 z m 3.68,-2.3 c 0,-0.79 -0.17,-1.41 -0.5,-1.86 -0.32,-0.45 -0.77,-0.67 -1.33,-0.67 -0.58,0 -1.03,0.22 -1.35,0.67 -0.33,0.45 -0.5,1.07 -0.5,1.86 0,0.79 0.17,1.41 0.5,1.87 0.32,0.45 0.77,0.68 1.35,0.68 0.56,0 1.01,-0.23 1.33,-0.68 0.33,-0.46 0.5,-1.08 0.5,-1.87 z m 3.97,-5.14 v 1.86 h 2.22 v 0.84 h -2.22 v 3.56 c 0,0.53 0.07,0.88 0.22,1.03 0.15,0.15 0.44,0.22 0.89,0.22 h 1.11 v 0.91 h -1.11 c -0.83,0 -1.41,-0.16 -1.73,-0.47 -0.31,-0.31 -0.47,-0.87 -0.47,-1.69 v -3.56 h -0.78 v -0.84 h 0.78 v -1.86 z" /><path
                       id="path178"
                       style="fill:#ffffff;fill-opacity:1;fill-rule:nonzero;stroke:none"
                       d="m 566.85,543.79 v 22 c 0,2.2 1.79,4 4,4 h 37.45 c 2.21,0 4,-1.8 4,-4 v -22 c 0,-2.21 -1.79,-4 -4,-4 h -37.45 c -2.21,0 -4,1.79 -4,4 z" /><path
                       id="path180"
                       style="fill:none;stroke:#000000;stroke-width:1;stroke-linecap:butt;stroke-linejoin:miter;stroke-miterlimit:1.45000005;stroke-dasharray:none;stroke-opacity:1"
                       d="m 566.85,543.79 v 22 c 0,2.2 1.79,4 4,4 h 37.45 c 2.21,0 4,-1.8 4,-4 v -22 c 0,-2.21 -1.79,-4 -4,-4 h -37.45 c -2.21,0 -4,1.79 -4,4 z" /><path
                       id="path182"
                       style="fill:#000000;fill-opacity:1;fill-rule:nonzero;stroke:none"
                       d="m 578.5,557.96 v 3.48 h -1.08 v -9.06 h 1.08 v 1 c 0.23,-0.4 0.51,-0.69 0.86,-0.88 0.34,-0.19 0.75,-0.28 1.23,-0.28 0.8,0 1.46,0.32 1.96,0.95 0.5,0.63 0.75,1.46 0.75,2.49 0,1.03 -0.25,1.86 -0.75,2.5 -0.5,0.63 -1.16,0.95 -1.96,0.95 -0.48,0 -0.89,-0.09 -1.23,-0.29 -0.35,-0.19 -0.63,-0.48 -0.86,-0.86 z m 3.67,-2.3 c 0,-0.79 -0.16,-1.41 -0.49,-1.86 -0.33,-0.45 -0.78,-0.67 -1.34,-0.67 -0.57,0 -1.02,0.22 -1.35,0.67 -0.33,0.45 -0.49,1.07 -0.49,1.86 0,0.79 0.16,1.41 0.49,1.87 0.33,0.45 0.78,0.68 1.35,0.68 0.56,0 1.01,-0.23 1.34,-0.68 0.33,-0.46 0.49,-1.08 0.49,-1.87 z m 6.71,-2.28 c -0.12,-0.07 -0.26,-0.11 -0.4,-0.15 -0.14,-0.04 -0.3,-0.06 -0.47,-0.06 -0.61,0 -1.07,0.2 -1.4,0.6 -0.33,0.39 -0.49,0.97 -0.49,1.72 v 3.45 h -1.08 v -6.56 h 1.08 v 1.01 c 0.23,-0.39 0.52,-0.69 0.89,-0.88 0.36,-0.19 0.8,-0.29 1.32,-0.29 0.08,0 0.16,0.01 0.25,0.02 0.09,0.01 0.18,0.02 0.29,0.04 z m 3.67,-0.25 c -0.57,0 -1.03,0.22 -1.37,0.68 -0.34,0.45 -0.51,1.07 -0.51,1.85 0,0.79 0.17,1.41 0.5,1.86 0.34,0.45 0.8,0.67 1.38,0.67 0.57,0 1.03,-0.23 1.37,-0.68 0.34,-0.45 0.5,-1.07 0.5,-1.85 0,-0.77 -0.16,-1.39 -0.5,-1.85 -0.34,-0.45 -0.8,-0.68 -1.37,-0.68 z m 0,-0.91 c 0.94,0 1.67,0.31 2.21,0.91 0.54,0.61 0.81,1.46 0.81,2.53 0,1.07 -0.27,1.91 -0.81,2.53 -0.54,0.61 -1.27,0.92 -2.21,0.92 -0.94,0 -1.68,-0.31 -2.21,-0.92 -0.54,-0.62 -0.81,-1.46 -0.81,-2.53 0,-1.07 0.27,-1.92 0.81,-2.53 0.53,-0.6 1.27,-0.91 2.21,-0.91 z m 9.53,0.41 v 1.01 c -0.31,-0.17 -0.62,-0.3 -0.92,-0.39 -0.31,-0.08 -0.61,-0.12 -0.93,-0.12 -0.7,0 -1.25,0.22 -1.64,0.66 -0.38,0.44 -0.57,1.07 -0.57,1.87 0,0.8 0.19,1.42 0.57,1.87 0.39,0.44 0.94,0.66 1.64,0.66 0.32,0 0.62,-0.04 0.93,-0.13 0.3,-0.08 0.61,-0.2 0.92,-0.37 v 1 c -0.3,0.13 -0.62,0.24 -0.94,0.31 -0.32,0.07 -0.67,0.11 -1.03,0.11 -0.99,0 -1.78,-0.31 -2.36,-0.93 -0.58,-0.62 -0.87,-1.46 -0.87,-2.52 0,-1.06 0.29,-1.9 0.88,-2.52 0.59,-0.61 1.4,-0.92 2.43,-0.92 0.32,0 0.64,0.03 0.96,0.1 0.32,0.07 0.63,0.17 0.93,0.31 z" /><path
                       id="path184"
                       style="fill:#ffffff;fill-opacity:1;fill-rule:nonzero;stroke:none"
                       d="m 566.85,579.99 v 22 c 0,2.2 1.79,4 4,4 h 37.45 c 2.21,0 4,-1.8 4,-4 v -22 c 0,-2.21 -1.79,-4 -4,-4 h -37.45 c -2.21,0 -4,1.79 -4,4 z" /><path
                       id="path186"
                       style="fill:none;stroke:#000000;stroke-width:1;stroke-linecap:butt;stroke-linejoin:miter;stroke-miterlimit:1.45000005;stroke-dasharray:none;stroke-opacity:1"
                       d="m 566.85,579.99 v 22 c 0,2.2 1.79,4 4,4 h 37.45 c 2.21,0 4,-1.8 4,-4 v -22 c 0,-2.21 -1.79,-4 -4,-4 h -37.45 c -2.21,0 -4,1.79 -4,4 z" /><path
                       id="path188"
                       style="fill:#000000;fill-opacity:1;fill-rule:nonzero;stroke:none"
                       d="m 582.35,589.58 c -0.13,-0.07 -0.26,-0.11 -0.4,-0.15 -0.14,-0.04 -0.3,-0.06 -0.48,-0.06 -0.6,0 -1.07,0.2 -1.4,0.6 -0.32,0.39 -0.49,0.97 -0.49,1.72 v 3.45 h -1.08 v -6.56 h 1.08 v 1.01 c 0.23,-0.39 0.53,-0.69 0.89,-0.88 0.37,-0.19 0.81,-0.29 1.33,-0.29 0.07,0 0.16,0.01 0.24,0.02 0.09,0.01 0.19,0.02 0.29,0.04 z m 3.67,-0.25 c -0.58,0 -1.03,0.22 -1.37,0.68 -0.34,0.45 -0.51,1.07 -0.51,1.85 0,0.79 0.17,1.41 0.5,1.86 0.33,0.45 0.79,0.67 1.38,0.67 0.57,0 1.02,-0.23 1.36,-0.68 0.34,-0.45 0.51,-1.07 0.51,-1.85 0,-0.77 -0.17,-1.39 -0.51,-1.85 -0.34,-0.45 -0.79,-0.68 -1.36,-0.68 z m 0,-0.91 c 0.93,0 1.67,0.31 2.21,0.91 0.53,0.61 0.8,1.46 0.8,2.53 0,1.07 -0.27,1.92 -0.8,2.53 -0.54,0.61 -1.28,0.92 -2.21,0.92 -0.94,0 -1.68,-0.31 -2.21,-0.92 -0.54,-0.61 -0.81,-1.46 -0.81,-2.53 0,-1.07 0.27,-1.92 0.81,-2.53 0.53,-0.6 1.27,-0.91 2.21,-0.91 z m 7.34,0.91 c -0.57,0 -1.03,0.22 -1.37,0.68 -0.34,0.45 -0.51,1.07 -0.51,1.85 0,0.79 0.17,1.41 0.5,1.86 0.34,0.45 0.79,0.67 1.38,0.67 0.57,0 1.03,-0.23 1.37,-0.68 0.33,-0.45 0.5,-1.07 0.5,-1.85 0,-0.77 -0.17,-1.39 -0.5,-1.85 -0.34,-0.45 -0.8,-0.68 -1.37,-0.68 z m 0,-0.91 c 0.94,0 1.67,0.31 2.21,0.91 0.54,0.61 0.8,1.46 0.8,2.53 0,1.07 -0.26,1.92 -0.8,2.53 -0.54,0.61 -1.27,0.92 -2.21,0.92 -0.94,0 -1.68,-0.31 -2.21,-0.92 -0.54,-0.61 -0.81,-1.46 -0.81,-2.53 0,-1.07 0.27,-1.92 0.81,-2.53 0.53,-0.6 1.27,-0.91 2.21,-0.91 z m 5.87,-1.7 v 1.86 h 2.22 v 0.84 h -2.22 v 3.56 c 0,0.53 0.07,0.88 0.22,1.03 0.15,0.15 0.44,0.22 0.89,0.22 h 1.11 v 0.91 h -1.11 c -0.83,0 -1.41,-0.16 -1.73,-0.47 -0.31,-0.31 -0.47,-0.87 -0.47,-1.69 v -3.56 h -0.78 v -0.84 h 0.78 v -1.86 z" /><path
                       id="path190"
                       style="fill:#ffffff;fill-opacity:1;fill-rule:nonzero;stroke:none"
                       d="m 566.85,616.19 v 22 c 0,2.2 1.79,4 4,4 h 37.45 c 2.21,0 4,-1.8 4,-4 v -22 c 0,-2.21 -1.79,-4 -4,-4 h -37.45 c -2.21,0 -4,1.79 -4,4 z" /><path
                       id="path192"
                       style="fill:none;stroke:#000000;stroke-width:1;stroke-linecap:butt;stroke-linejoin:miter;stroke-miterlimit:1.45000005;stroke-dasharray:none;stroke-opacity:1"
                       d="m 566.85,616.19 v 22 c 0,2.2 1.79,4 4,4 h 37.45 c 2.21,0 4,-1.8 4,-4 v -22 c 0,-2.21 -1.79,-4 -4,-4 h -37.45 c -2.21,0 -4,1.79 -4,4 z" /><path
                       id="path194"
                       style="fill:#000000;fill-opacity:1;fill-rule:nonzero;stroke:none"
                       d="m 584.44,625.78 c -0.13,-0.07 -0.26,-0.11 -0.4,-0.15 -0.14,-0.04 -0.3,-0.06 -0.48,-0.06 -0.6,0 -1.07,0.2 -1.4,0.6 -0.32,0.39 -0.49,0.97 -0.49,1.72 v 3.45 h -1.08 v -6.56 h 1.08 v 1.01 c 0.23,-0.39 0.53,-0.69 0.89,-0.88 0.37,-0.19 0.81,-0.29 1.33,-0.29 0.07,0 0.15,0.01 0.24,0.02 0.09,0.01 0.19,0.02 0.29,0.04 z m 1.01,2.97 v -3.97 h 1.08 v 3.93 c 0,0.62 0.12,1.08 0.36,1.4 0.25,0.31 0.61,0.46 1.09,0.46 0.58,0 1.04,-0.18 1.38,-0.55 0.34,-0.37 0.51,-0.88 0.51,-1.52 v -3.72 h 1.08 v 6.56 h -1.08 v -1.02 c -0.26,0.41 -0.56,0.71 -0.91,0.9 -0.34,0.2 -0.74,0.29 -1.2,0.29 -0.76,0 -1.33,-0.23 -1.73,-0.7 -0.39,-0.47 -0.58,-1.16 -0.58,-2.06 z m 2.72,-4.13 z m 10.46,2.75 v 3.97 h -1.08 v -3.92 c 0,-0.63 -0.12,-1.09 -0.36,-1.4 -0.25,-0.31 -0.61,-0.46 -1.09,-0.46 -0.58,0 -1.04,0.18 -1.38,0.55 -0.34,0.37 -0.51,0.88 -0.51,1.53 v 3.7 h -1.08 v -6.56 h 1.08 v 1.01 c 0.26,-0.39 0.57,-0.69 0.91,-0.88 0.35,-0.19 0.76,-0.29 1.22,-0.29 0.75,0 1.32,0.23 1.71,0.7 0.39,0.46 0.58,1.14 0.58,2.05 z" /><path
                       id="path196"
                       style="fill:#ffffff;fill-opacity:1;fill-rule:nonzero;stroke:none"
                       d="m 566.85,652.39 v 22 c 0,2.2 1.79,4 4,4 h 37.45 c 2.21,0 4,-1.8 4,-4 v -22 c 0,-2.21 -1.79,-4 -4,-4 h -37.45 c -2.21,0 -4,1.79 -4,4 z" /><path
                       id="path198"
                       style="fill:none;stroke:#000000;stroke-width:1;stroke-linecap:butt;stroke-linejoin:miter;stroke-miterlimit:1.45000005;stroke-dasharray:none;stroke-opacity:1"
                       d="m 566.85,652.39 v 22 c 0,2.2 1.79,4 4,4 h 37.45 c 2.21,0 4,-1.8 4,-4 v -22 c 0,-2.21 -1.79,-4 -4,-4 h -37.45 c -2.21,0 -4,1.79 -4,4 z" /><path
                       id="path200"
                       style="fill:#000000;fill-opacity:1;fill-rule:nonzero;stroke:none"
                       d="m 582.48,661.16 v 1.04 c -0.3,-0.16 -0.62,-0.28 -0.95,-0.36 -0.32,-0.07 -0.66,-0.11 -1.02,-0.11 -0.53,0 -0.93,0.08 -1.2,0.24 -0.27,0.16 -0.41,0.41 -0.41,0.74 0,0.25 0.1,0.45 0.29,0.59 0.19,0.14 0.58,0.27 1.17,0.4 l 0.35,0.09 c 0.78,0.16 1.32,0.38 1.65,0.69 0.32,0.3 0.48,0.72 0.48,1.25 0,0.61 -0.24,1.1 -0.73,1.45 -0.48,0.35 -1.15,0.53 -1.99,0.53 -0.35,0 -0.72,-0.03 -1.1,-0.1 -0.38,-0.07 -0.78,-0.17 -1.2,-0.3 v -1.13 c 0.4,0.21 0.79,0.36 1.18,0.47 0.38,0.1 0.77,0.16 1.15,0.16 0.5,0 0.89,-0.09 1.17,-0.26 0.27,-0.17 0.41,-0.42 0.41,-0.74 0,-0.3 -0.1,-0.52 -0.3,-0.68 -0.19,-0.15 -0.63,-0.3 -1.29,-0.45 l -0.38,-0.08 c -0.67,-0.14 -1.15,-0.36 -1.44,-0.65 -0.3,-0.3 -0.45,-0.69 -0.45,-1.19 0,-0.63 0.22,-1.11 0.66,-1.44 0.43,-0.33 1.05,-0.5 1.86,-0.5 0.39,0 0.77,0.03 1.12,0.09 0.36,0.05 0.68,0.14 0.97,0.25 z m 6.78,3.1 c 0,-0.79 -0.16,-1.41 -0.49,-1.86 -0.33,-0.45 -0.77,-0.67 -1.33,-0.67 -0.58,0 -1.03,0.22 -1.36,0.67 -0.32,0.45 -0.49,1.07 -0.49,1.86 0,0.79 0.17,1.41 0.49,1.87 0.33,0.45 0.78,0.68 1.36,0.68 0.56,0 1,-0.23 1.33,-0.68 0.33,-0.46 0.49,-1.08 0.49,-1.87 z m -3.67,-2.28 c 0.23,-0.4 0.52,-0.69 0.86,-0.88 0.34,-0.19 0.76,-0.28 1.24,-0.28 0.8,0 1.45,0.32 1.95,0.95 0.5,0.63 0.75,1.46 0.75,2.49 0,1.03 -0.25,1.86 -0.75,2.5 -0.5,0.63 -1.15,0.95 -1.95,0.95 -0.48,0 -0.9,-0.09 -1.24,-0.29 -0.34,-0.19 -0.63,-0.48 -0.86,-0.86 v 0.98 h -1.08 v -9.13 h 1.08 z m 6.57,-1 h 1.08 v 6.56 h -1.08 z m 0,-2.57 h 1.08 v 1.38 h -1.08 z m 8.8,5.16 v 3.97 h -1.07 v -3.92 c 0,-0.63 -0.13,-1.09 -0.37,-1.4 -0.25,-0.31 -0.61,-0.46 -1.09,-0.46 -0.58,0 -1.04,0.18 -1.38,0.55 -0.34,0.37 -0.51,0.88 -0.51,1.53 v 3.7 h -1.08 v -6.56 h 1.08 v 1.01 c 0.26,-0.39 0.57,-0.69 0.92,-0.88 0.35,-0.19 0.75,-0.29 1.21,-0.29 0.75,0 1.32,0.23 1.71,0.7 0.39,0.46 0.58,1.14 0.58,2.05 z" /><path
                       id="path202"
                       style="fill:#ffffff;fill-opacity:1;fill-rule:nonzero;stroke:none"
                       d="m 566.85,688.59 v 22 c 0,2.2 1.79,4 4,4 h 37.45 c 2.21,0 4,-1.8 4,-4 v -22 c 0,-2.21 -1.79,-4 -4,-4 h -37.45 c -2.21,0 -4,1.79 -4,4 z" /><path
                       id="path204"
                       style="fill:none;stroke:#000000;stroke-width:1;stroke-linecap:butt;stroke-linejoin:miter;stroke-miterlimit:1.45000005;stroke-dasharray:none;stroke-opacity:1"
                       d="m 566.85,688.59 v 22 c 0,2.2 1.79,4 4,4 h 37.45 c 2.21,0 4,-1.8 4,-4 v -22 c 0,-2.21 -1.79,-4 -4,-4 h -37.45 c -2.21,0 -4,1.79 -4,4 z" /><path
                       id="path206"
                       style="fill:#000000;fill-opacity:1;fill-rule:nonzero;stroke:none"
                       d="m 585.74,697.36 v 1.04 c -0.3,-0.16 -0.62,-0.28 -0.94,-0.36 -0.33,-0.07 -0.67,-0.11 -1.03,-0.11 -0.53,0 -0.93,0.08 -1.2,0.24 -0.27,0.16 -0.41,0.41 -0.41,0.74 0,0.25 0.1,0.45 0.29,0.59 0.19,0.14 0.58,0.27 1.17,0.4 l 0.36,0.09 c 0.77,0.16 1.31,0.38 1.64,0.69 0.32,0.3 0.48,0.72 0.48,1.25 0,0.61 -0.24,1.1 -0.73,1.45 -0.48,0.35 -1.14,0.53 -1.99,0.53 -0.35,0 -0.72,-0.03 -1.1,-0.1 -0.38,-0.07 -0.78,-0.17 -1.2,-0.3 v -1.13 c 0.4,0.21 0.79,0.36 1.18,0.47 0.38,0.1 0.77,0.16 1.15,0.16 0.5,0 0.89,-0.09 1.17,-0.26 0.27,-0.17 0.41,-0.42 0.41,-0.74 0,-0.3 -0.1,-0.52 -0.3,-0.68 -0.19,-0.15 -0.63,-0.3 -1.29,-0.45 l -0.38,-0.08 c -0.66,-0.14 -1.15,-0.36 -1.44,-0.65 -0.3,-0.3 -0.45,-0.69 -0.45,-1.19 0,-0.63 0.22,-1.11 0.66,-1.44 0.44,-0.33 1.06,-0.5 1.86,-0.5 0.39,0 0.77,0.03 1.12,0.09 0.36,0.05 0.68,0.14 0.97,0.25 z m 5.88,0.82 c -0.13,-0.07 -0.26,-0.11 -0.4,-0.15 -0.14,-0.04 -0.3,-0.06 -0.48,-0.06 -0.6,0 -1.07,0.2 -1.4,0.6 -0.32,0.39 -0.49,0.97 -0.49,1.72 v 3.45 h -1.08 v -6.56 h 1.08 v 1.01 c 0.23,-0.39 0.53,-0.69 0.89,-0.88 0.37,-0.19 0.81,-0.29 1.33,-0.29 0.07,0 0.15,0.01 0.24,0.02 0.09,0.01 0.19,0.02 0.29,0.04 z m 0.35,-1 h 1.14 l 2.05,5.5 2.06,-5.5 h 1.14 l -2.46,6.56 h -1.47 z" /><path
                       id="path208"
                       style="fill:#ffffff;fill-opacity:1;fill-rule:nonzero;stroke:none"
                       d="m 566.85,724.79 v 22 c 0,2.2 1.79,4 4,4 h 37.45 c 2.21,0 4,-1.8 4,-4 v -22 c 0,-2.21 -1.79,-4 -4,-4 h -37.45 c -2.21,0 -4,1.79 -4,4 z" /><path
                       id="path210"
                       style="fill:none;stroke:#000000;stroke-width:1;stroke-linecap:butt;stroke-linejoin:miter;stroke-miterlimit:1.45000005;stroke-dasharray:none;stroke-opacity:1"
                       d="m 566.85,724.79 v 22 c 0,2.2 1.79,4 4,4 h 37.45 c 2.21,0 4,-1.8 4,-4 v -22 c 0,-2.21 -1.79,-4 -4,-4 h -37.45 c -2.21,0 -4,1.79 -4,4 z" /><path
                       id="path212"
                       style="fill:#000000;fill-opacity:1;fill-rule:nonzero;stroke:none"
                       d="m 585.08,733.56 v 1.04 c -0.3,-0.16 -0.62,-0.28 -0.94,-0.36 -0.33,-0.07 -0.67,-0.11 -1.03,-0.11 -0.53,0 -0.93,0.08 -1.2,0.24 -0.27,0.16 -0.41,0.41 -0.41,0.74 0,0.25 0.1,0.45 0.29,0.59 0.2,0.14 0.58,0.27 1.17,0.4 l 0.36,0.09 c 0.77,0.16 1.31,0.38 1.64,0.69 0.32,0.3 0.48,0.72 0.48,1.25 0,0.61 -0.24,1.1 -0.73,1.45 -0.48,0.35 -1.14,0.53 -1.99,0.53 -0.35,0 -0.72,-0.03 -1.1,-0.1 -0.38,-0.07 -0.78,-0.17 -1.19,-0.3 v -1.13 c 0.39,0.21 0.78,0.36 1.17,0.47 0.38,0.1 0.77,0.16 1.15,0.16 0.5,0 0.89,-0.09 1.17,-0.26 0.27,-0.17 0.41,-0.42 0.41,-0.74 0,-0.3 -0.1,-0.52 -0.3,-0.68 -0.19,-0.15 -0.63,-0.3 -1.29,-0.45 L 582.36,737 c -0.66,-0.14 -1.15,-0.36 -1.44,-0.65 -0.3,-0.3 -0.45,-0.69 -0.45,-1.19 0,-0.63 0.22,-1.11 0.66,-1.44 0.44,-0.33 1.06,-0.5 1.86,-0.5 0.39,0 0.77,0.03 1.12,0.09 0.36,0.05 0.68,0.14 0.97,0.25 z m 4.8,6.99 c -0.3,0.78 -0.6,1.29 -0.89,1.53 -0.29,0.24 -0.68,0.36 -1.16,0.36 h -0.86 v -0.91 h 0.63 c 0.3,0 0.53,-0.07 0.69,-0.21 0.17,-0.14 0.35,-0.47 0.54,-0.99 l 0.21,-0.5 -2.66,-6.45 h 1.14 l 2.05,5.12 2.06,-5.12 h 1.14 z m 8.56,-6.99 v 1.04 c -0.31,-0.16 -0.62,-0.28 -0.95,-0.36 -0.33,-0.07 -0.67,-0.11 -1.02,-0.11 -0.53,0 -0.94,0.08 -1.21,0.24 -0.27,0.16 -0.4,0.41 -0.4,0.74 0,0.25 0.09,0.45 0.29,0.59 0.19,0.14 0.58,0.27 1.16,0.4 l 0.36,0.09 c 0.77,0.16 1.32,0.38 1.64,0.69 0.32,0.3 0.48,0.72 0.48,1.25 0,0.61 -0.24,1.1 -0.72,1.45 -0.49,0.35 -1.15,0.53 -1.99,0.53 -0.36,0 -0.73,-0.03 -1.11,-0.1 -0.38,-0.07 -0.77,-0.17 -1.19,-0.3 v -1.13 c 0.39,0.21 0.79,0.36 1.17,0.47 0.39,0.1 0.77,0.16 1.16,0.16 0.5,0 0.89,-0.09 1.16,-0.26 0.28,-0.17 0.42,-0.42 0.42,-0.74 0,-0.3 -0.1,-0.52 -0.3,-0.68 -0.2,-0.15 -0.63,-0.3 -1.3,-0.45 L 595.72,737 c -0.67,-0.14 -1.15,-0.36 -1.45,-0.65 -0.3,-0.3 -0.44,-0.69 -0.44,-1.19 0,-0.63 0.21,-1.11 0.65,-1.44 0.44,-0.33 1.06,-0.5 1.86,-0.5 0.4,0 0.77,0.03 1.13,0.09 0.35,0.05 0.67,0.14 0.97,0.25 z" /><path
                       id="path214"
                       style="fill:#ffffff;fill-opacity:1;fill-rule:nonzero;stroke:none"
                       d="m 566.85,760.99 v 22 c 0,2.2 1.79,4 4,4 h 37.45 c 2.21,0 4,-1.8 4,-4 v -22 c 0,-2.21 -1.79,-4 -4,-4 h -37.45 c -2.21,0 -4,1.79 -4,4 z" /><path
                       id="path216"
                       style="fill:none;stroke:#000000;stroke-width:1;stroke-linecap:butt;stroke-linejoin:miter;stroke-miterlimit:1.45000005;stroke-dasharray:none;stroke-opacity:1"
                       d="m 566.85,760.99 v 22 c 0,2.2 1.79,4 4,4 h 37.45 c 2.21,0 4,-1.8 4,-4 v -22 c 0,-2.21 -1.79,-4 -4,-4 h -37.45 c -2.21,0 -4,1.79 -4,4 z" /><path
                       id="path218"
                       style="fill:#000000;fill-opacity:1;fill-rule:nonzero;stroke:none"
                       d="m 579.77,767.72 v 1.86 h 2.22 v 0.84 h -2.22 v 3.56 c 0,0.53 0.07,0.88 0.22,1.03 0.14,0.15 0.44,0.22 0.89,0.22 h 1.11 v 0.91 h -1.11 c -0.83,0 -1.41,-0.16 -1.73,-0.47 -0.32,-0.31 -0.47,-0.87 -0.47,-1.69 v -3.56 h -0.79 v -0.84 h 0.79 v -1.86 z m 8.74,3.12 c 0.27,-0.49 0.59,-0.85 0.96,-1.08 0.38,-0.22 0.82,-0.34 1.33,-0.34 0.69,0 1.22,0.24 1.59,0.72 0.37,0.48 0.55,1.16 0.55,2.03 v 3.97 h -1.08 v -3.92 c 0,-0.64 -0.11,-1.11 -0.33,-1.41 -0.23,-0.3 -0.57,-0.45 -1.02,-0.45 -0.57,0 -1.01,0.18 -1.33,0.55 -0.33,0.37 -0.49,0.88 -0.49,1.53 v 3.7 h -1.08 v -3.92 c 0,-0.64 -0.11,-1.11 -0.33,-1.41 -0.23,-0.3 -0.57,-0.45 -1.04,-0.45 -0.55,0 -0.99,0.18 -1.31,0.55 -0.33,0.37 -0.49,0.88 -0.49,1.53 v 3.7 h -1.08 v -6.56 h 1.08 v 1.01 c 0.25,-0.39 0.55,-0.69 0.89,-0.88 0.35,-0.19 0.75,-0.29 1.22,-0.29 0.48,0 0.89,0.12 1.22,0.36 0.33,0.24 0.58,0.59 0.74,1.06 z m 7.62,4.32 v 3.48 h -1.08 v -9.06 h 1.08 v 1 c 0.23,-0.4 0.52,-0.69 0.86,-0.88 0.35,-0.19 0.76,-0.28 1.24,-0.28 0.8,0 1.45,0.32 1.95,0.95 0.5,0.63 0.75,1.46 0.75,2.49 0,1.03 -0.25,1.86 -0.75,2.5 -0.5,0.63 -1.15,0.95 -1.95,0.95 -0.48,0 -0.89,-0.09 -1.24,-0.29 -0.34,-0.19 -0.63,-0.48 -0.86,-0.86 z m 3.67,-2.3 c 0,-0.79 -0.16,-1.41 -0.49,-1.86 -0.33,-0.45 -0.77,-0.67 -1.33,-0.67 -0.58,0 -1.03,0.22 -1.36,0.67 -0.32,0.45 -0.49,1.07 -0.49,1.86 0,0.79 0.17,1.41 0.49,1.87 0.33,0.45 0.78,0.68 1.36,0.68 0.56,0 1,-0.23 1.33,-0.68 0.33,-0.46 0.49,-1.08 0.49,-1.87 z" /><path
                       id="path220"
                       style="fill:#ffffff;fill-opacity:1;fill-rule:nonzero;stroke:none"
                       d="m 566.85,797.19 v 22 c 0,2.2 1.79,4 4,4 h 37.45 c 2.21,0 4,-1.8 4,-4 v -22 c 0,-2.21 -1.79,-4 -4,-4 h -37.45 c -2.21,0 -4,1.79 -4,4 z" /><path
                       id="path222"
                       style="fill:none;stroke:#000000;stroke-width:1;stroke-linecap:butt;stroke-linejoin:miter;stroke-miterlimit:1.45000005;stroke-dasharray:none;stroke-opacity:1"
                       d="m 566.85,797.19 v 22 c 0,2.2 1.79,4 4,4 h 37.45 c 2.21,0 4,-1.8 4,-4 v -22 c 0,-2.21 -1.79,-4 -4,-4 h -37.45 c -2.21,0 -4,1.79 -4,4 z" /><path
                       id="path224"
                       style="fill:#000000;fill-opacity:1;fill-rule:nonzero;stroke:none"
                       d="m 581.19,809.75 v -3.97 h 1.08 v 3.93 c 0,0.62 0.12,1.08 0.37,1.4 0.24,0.31 0.6,0.46 1.08,0.46 0.59,0 1.05,-0.18 1.39,-0.55 0.33,-0.37 0.5,-0.88 0.5,-1.52 v -3.72 h 1.08 v 6.56 h -1.08 v -1.02 c -0.26,0.41 -0.56,0.71 -0.9,0.9 -0.35,0.2 -0.75,0.29 -1.21,0.29 -0.76,0 -1.33,-0.23 -1.72,-0.7 -0.39,-0.47 -0.59,-1.16 -0.59,-2.06 z m 2.72,-4.13 z m 9.18,0.34 V 807 c -0.3,-0.16 -0.61,-0.28 -0.94,-0.36 -0.33,-0.07 -0.67,-0.11 -1.02,-0.11 -0.54,0 -0.94,0.08 -1.21,0.24 -0.27,0.16 -0.4,0.41 -0.4,0.74 0,0.25 0.09,0.45 0.29,0.59 0.19,0.14 0.58,0.27 1.16,0.4 l 0.36,0.09 c 0.77,0.16 1.32,0.39 1.64,0.69 0.32,0.3 0.48,0.72 0.48,1.25 0,0.61 -0.24,1.1 -0.72,1.45 -0.49,0.35 -1.15,0.53 -2,0.53 -0.35,0 -0.72,-0.03 -1.1,-0.1 -0.38,-0.07 -0.78,-0.17 -1.19,-0.3 v -1.13 c 0.39,0.21 0.78,0.36 1.17,0.47 0.39,0.1 0.77,0.16 1.16,0.16 0.5,0 0.88,-0.09 1.16,-0.26 0.28,-0.17 0.41,-0.42 0.41,-0.74 0,-0.3 -0.09,-0.52 -0.29,-0.68 -0.2,-0.15 -0.63,-0.3 -1.3,-0.45 l -0.37,-0.08 c -0.67,-0.14 -1.15,-0.36 -1.45,-0.65 -0.3,-0.3 -0.45,-0.69 -0.45,-1.19 0,-0.63 0.22,-1.11 0.66,-1.44 0.44,-0.33 1.06,-0.5 1.86,-0.5 0.4,0 0.77,0.03 1.13,0.09 0.35,0.05 0.67,0.14 0.96,0.25 z m 5.88,0.82 c -0.12,-0.07 -0.26,-0.11 -0.4,-0.15 -0.14,-0.04 -0.3,-0.06 -0.47,-0.06 -0.61,0 -1.07,0.2 -1.4,0.6 -0.33,0.39 -0.49,0.97 -0.49,1.72 v 3.45 h -1.08 v -6.56 h 1.08 v 1.01 c 0.22,-0.39 0.52,-0.69 0.89,-0.88 0.36,-0.19 0.8,-0.29 1.32,-0.29 0.08,0 0.16,0.01 0.25,0.02 0.09,0.01 0.18,0.02 0.29,0.04 z" /><path
                       id="path226"
                       style="fill:#ffffff;fill-opacity:1;fill-rule:nonzero;stroke:none"
                       d="m 566.85,833.39 v 22 c 0,2.2 1.79,4 4,4 h 37.45 c 2.21,0 4,-1.8 4,-4 v -22 c 0,-2.21 -1.79,-4 -4,-4 h -37.45 c -2.21,0 -4,1.79 -4,4 z" /><path
                       id="path228"
                       style="fill:none;stroke:#000000;stroke-width:1;stroke-linecap:butt;stroke-linejoin:miter;stroke-miterlimit:1.45000005;stroke-dasharray:none;stroke-opacity:1"
                       d="m 566.85,833.39 v 22 c 0,2.2 1.79,4 4,4 h 37.45 c 2.21,0 4,-1.8 4,-4 v -22 c 0,-2.21 -1.79,-4 -4,-4 h -37.45 c -2.21,0 -4,1.79 -4,4 z" /><path
                       id="path230"
                       style="fill:#000000;fill-opacity:1;fill-rule:nonzero;stroke:none"
                       d="m 580.24,841.98 h 1.14 l 2.04,5.5 2.07,-5.5 h 1.14 l -2.47,6.56 h -1.47 z m 10.85,3.26 c -0.87,0 -1.47,0.1 -1.81,0.3 -0.33,0.2 -0.5,0.54 -0.5,1.02 0,0.38 0.12,0.69 0.38,0.91 0.25,0.22 0.6,0.34 1.02,0.34 0.61,0 1.09,-0.22 1.45,-0.64 0.36,-0.42 0.54,-0.98 0.54,-1.69 v -0.24 z m 2.15,-0.45 v 3.75 h -1.07 v -1 c -0.25,0.4 -0.56,0.69 -0.93,0.88 -0.36,0.2 -0.81,0.29 -1.34,0.29 -0.68,0 -1.21,-0.19 -1.61,-0.57 -0.39,-0.38 -0.59,-0.88 -0.59,-1.51 0,-0.74 0.25,-1.29 0.74,-1.67 0.49,-0.37 1.23,-0.56 2.21,-0.56 h 1.52 v -0.11 c 0,-0.5 -0.17,-0.89 -0.5,-1.16 -0.32,-0.27 -0.78,-0.4 -1.36,-0.4 -0.38,0 -0.74,0.04 -1.1,0.14 -0.36,0.09 -0.7,0.23 -1.03,0.4 v -1 c 0.4,-0.15 0.78,-0.27 1.15,-0.34 0.37,-0.07 0.73,-0.11 1.09,-0.11 0.94,0 1.65,0.25 2.12,0.74 0.47,0.48 0.7,1.23 0.7,2.23 z m 6.03,-1.81 c -0.12,-0.07 -0.26,-0.11 -0.4,-0.15 -0.14,-0.04 -0.3,-0.06 -0.47,-0.06 -0.61,0 -1.08,0.2 -1.4,0.6 -0.33,0.39 -0.5,0.97 -0.5,1.72 v 3.45 h -1.07 v -6.56 h 1.07 v 1.01 c 0.23,-0.39 0.53,-0.69 0.9,-0.88 0.36,-0.19 0.8,-0.29 1.32,-0.29 0.08,0 0.16,0.01 0.25,0.02 0.08,0.01 0.18,0.02 0.28,0.04 z" /><path
                       id="path232"
                       style="fill:none;stroke:#000000;stroke-width:1;stroke-linecap:butt;stroke-linejoin:miter;stroke-miterlimit:1.45000005;stroke-dasharray:none;stroke-opacity:1"
                       d="m 854.39,771.99 h 54.02" /><path
                       id="path234"
                       style="fill:none;stroke:#000000;stroke-width:1;stroke-linecap:butt;stroke-linejoin:miter;stroke-miterlimit:1.45000005;stroke-dasharray:none;stroke-opacity:1"
                       d="m 854.48,771.99 h 26.94 v -36.2 h 27.06" /><path
                       id="path236"
                       style="fill:none;stroke:#000000;stroke-width:1;stroke-linecap:butt;stroke-linejoin:miter;stroke-miterlimit:1.45000005;stroke-dasharray:none;stroke-opacity:1"
                       d="m 854.48,771.99 h 26.94 v -72.4 h 27.06" /><path
                       id="path238"
                       style="fill:none;stroke:#000000;stroke-width:1;stroke-linecap:butt;stroke-linejoin:miter;stroke-miterlimit:1.45000005;stroke-dasharray:none;stroke-opacity:1"
                       d="m 505.57,265.18 h 61.25" /><path
                       id="path240"
                       style="fill:none;stroke:#000000;stroke-width:1;stroke-linecap:butt;stroke-linejoin:miter;stroke-miterlimit:1.45000005;stroke-dasharray:none;stroke-opacity:1"
                       d="M 505.57,265.18 H 537 v 36.21 h 29.82" /><path
                       id="path242"
                       style="fill:none;stroke:#000000;stroke-width:1;stroke-linecap:butt;stroke-linejoin:miter;stroke-miterlimit:1.45000005;stroke-dasharray:none;stroke-opacity:1"
                       d="M 505.57,265.18 H 537 v 72.4 h 29.82" /><path
                       id="path244"
                       style="fill:none;stroke:#000000;stroke-width:1;stroke-linecap:butt;stroke-linejoin:miter;stroke-miterlimit:1.45000005;stroke-dasharray:none;stroke-opacity:1"
                       d="M 505.57,265.18 H 537 v 108.61 h 29.82" /><path
                       id="path246"
                       style="fill:none;stroke:#000000;stroke-width:1;stroke-linecap:butt;stroke-linejoin:miter;stroke-miterlimit:1.45000005;stroke-dasharray:none;stroke-opacity:1"
                       d="M 505.57,265.18 H 537 v 144.8 h 29.82" /><path
                       id="path248"
                       style="fill:none;stroke:#000000;stroke-width:1;stroke-linecap:butt;stroke-linejoin:miter;stroke-miterlimit:1.45000005;stroke-dasharray:none;stroke-opacity:1"
                       d="m 612.33,409.99 h 36.76 v 36.2 h 34.8" /><path
                       id="path250"
                       style="fill:none;stroke:#000000;stroke-width:1;stroke-linecap:butt;stroke-linejoin:miter;stroke-miterlimit:1.45000005;stroke-dasharray:none;stroke-opacity:1"
                       d="m 612.29,409.99 h 71.62" /><path
                       id="path252"
                       style="fill:none;stroke:#000000;stroke-width:1;stroke-linecap:butt;stroke-linejoin:miter;stroke-miterlimit:1.45000005;stroke-dasharray:none;stroke-opacity:1"
                       d="M 505.57,265.18 H 537 v 181 h 29.82" /><path
                       id="path254"
                       style="fill:none;stroke:#000000;stroke-width:1;stroke-linecap:butt;stroke-linejoin:miter;stroke-miterlimit:1.45000005;stroke-dasharray:none;stroke-opacity:1"
                       d="M 505.57,265.18 H 537 v 217.21 h 29.82" /><path
                       id="path256"
                       style="fill:none;stroke:#000000;stroke-width:1;stroke-linecap:butt;stroke-linejoin:miter;stroke-miterlimit:1.45000005;stroke-dasharray:none;stroke-opacity:1"
                       d="M 505.57,265.18 H 537 v 253.41 h 29.82" /><path
                       id="path258"
                       style="fill:none;stroke:#000000;stroke-width:1;stroke-linecap:butt;stroke-linejoin:miter;stroke-miterlimit:1.45000005;stroke-dasharray:none;stroke-opacity:1"
                       d="M 505.57,265.18 H 537 v 289.6 h 29.82" /><path
                       id="path260"
                       style="fill:none;stroke:#000000;stroke-width:1;stroke-linecap:butt;stroke-linejoin:miter;stroke-miterlimit:1.45000005;stroke-dasharray:none;stroke-opacity:1"
                       d="M 505.57,265.18 H 537 v 325.8 h 29.82" /><path
                       id="path262"
                       style="fill:none;stroke:#000000;stroke-width:1;stroke-linecap:butt;stroke-linejoin:miter;stroke-miterlimit:1.45000005;stroke-dasharray:none;stroke-opacity:1"
                       d="M 505.57,265.18 H 537 v 362 h 29.82" /><path
                       id="path264"
                       style="fill:none;stroke:#000000;stroke-width:1;stroke-linecap:butt;stroke-linejoin:miter;stroke-miterlimit:1.45000005;stroke-dasharray:none;stroke-opacity:1"
                       d="M 505.57,265.18 H 537 v 398.21 h 29.82" /><path
                       id="path266"
                       style="fill:none;stroke:#000000;stroke-width:1;stroke-linecap:butt;stroke-linejoin:miter;stroke-miterlimit:1.45000005;stroke-dasharray:none;stroke-opacity:1"
                       d="M 505.57,265.18 H 537 v 434.41 h 29.82" /><path
                       id="path268"
                       style="fill:none;stroke:#000000;stroke-width:1;stroke-linecap:butt;stroke-linejoin:miter;stroke-miterlimit:1.45000005;stroke-dasharray:none;stroke-opacity:1"
                       d="M 505.57,265.18 H 537 v 470.6 h 29.82" /><path
                       id="path270"
                       style="fill:none;stroke:#000000;stroke-width:1;stroke-linecap:butt;stroke-linejoin:miter;stroke-miterlimit:1.45000005;stroke-dasharray:none;stroke-opacity:1"
                       d="M 505.57,265.18 H 537 v 506.8 h 29.82" /><path
                       id="path272"
                       style="fill:none;stroke:#000000;stroke-width:1;stroke-linecap:butt;stroke-linejoin:miter;stroke-miterlimit:1.45000005;stroke-dasharray:none;stroke-opacity:1"
                       d="M 505.57,265.18 H 537 v 543 h 29.82" /><path
                       id="path274"
                       style="fill:none;stroke:#000000;stroke-width:1;stroke-linecap:butt;stroke-linejoin:miter;stroke-miterlimit:1.45000005;stroke-dasharray:none;stroke-opacity:1"
                       d="m 612.27,808.19 h 25.02 v -181 H 764.1 v 181 h 44.86" /><path
                       id="path276"
                       style="fill:none;stroke:#000000;stroke-width:1;stroke-linecap:butt;stroke-linejoin:miter;stroke-miterlimit:1.45000005;stroke-dasharray:none;stroke-opacity:1"
                       d="m 612.27,808.19 h 25.02 v -181 H 764.1 v 144.8 h 44.86" /><path
                       id="path278"
                       style="fill:none;stroke:#000000;stroke-width:1;stroke-linecap:butt;stroke-linejoin:miter;stroke-miterlimit:1.45000005;stroke-dasharray:none;stroke-opacity:1"
                       d="m 612.27,808.19 h 25.02 v -181 H 764.1 v 108.6 h 44.86" /><path
                       id="path280"
                       style="fill:none;stroke:#000000;stroke-width:1;stroke-linecap:butt;stroke-linejoin:miter;stroke-miterlimit:1.45000005;stroke-dasharray:none;stroke-opacity:1"
                       d="m 612.27,808.19 h 25.02 v -181 H 764.1 v 72.4 h 44.86" /><path
                       id="path282"
                       style="fill:none;stroke:#000000;stroke-width:1;stroke-linecap:butt;stroke-linejoin:miter;stroke-miterlimit:1.45000005;stroke-dasharray:none;stroke-opacity:1"
                       d="m 612.27,808.19 h 25.02 v -181 H 764.1 v 36.2 h 44.86" /><path
                       id="path284"
                       style="fill:none;stroke:#000000;stroke-width:1;stroke-linecap:butt;stroke-linejoin:miter;stroke-miterlimit:1.45000005;stroke-dasharray:none;stroke-opacity:1"
                       d="m 612.27,808.19 h 25.02 v -181 h 171.68" /><path
                       id="path286"
                       style="fill:none;stroke:#000000;stroke-width:1;stroke-linecap:butt;stroke-linejoin:miter;stroke-miterlimit:1.45000005;stroke-dasharray:none;stroke-opacity:1"
                       d="M 505.57,265.18 H 537 v 579.21 h 29.82" /><path
                       id="path288"
                       style="fill:none;stroke:#000000;stroke-width:1;stroke-linecap:butt;stroke-linejoin:miter;stroke-miterlimit:1.45000005;stroke-dasharray:none;stroke-opacity:1"
                       d="m 612.29,844.39 h 71.62" /><path
                       id="path290"
                       style="fill:none;stroke:#000000;stroke-width:1;stroke-linecap:butt;stroke-linejoin:miter;stroke-miterlimit:1.45000005;stroke-dasharray:none;stroke-opacity:1"
                       d="m 612.3,844.39 h 34.82 v -36.2 h 36.75" /></g></g><g
                   id="g292" /></g></g></g></g><g
           id="g294"><g
             id="g296"><g
               clip-path="url(#clipPath302)"
               id="g298" /></g></g></g></g></g></svg>